<svg id="Layer_1" data-name="Layer 1" xmlns="http://www.w3.org/2000/svg" viewBox="0 0 1400 980"><defs><style>.cls-1,.cls-2{fill:#95cd87;}.cls-10,.cls-11,.cls-2,.cls-7{stroke:#231f20;}.cls-10,.cls-11,.cls-2,.cls-6,.cls-7{stroke-miterlimit:10;}.cls-2{stroke-width:2px;}.cls-3{fill:#fff2af;}.cls-10,.cls-11,.cls-4{fill:#ffed9e;}.cls-5{fill:#010101;}.cls-6,.cls-7{fill:none;}.cls-6{stroke:#000;}.cls-10,.cls-6,.cls-7{stroke-width:3px;}.cls-8{fill:#ffed9d;}.cls-9{fill:#231f20;}.cls-11{stroke-width:4px;}</style></defs><title>illustrations</title><path class="cls-1" d="M466.69,767.92c5.68,0.63,10.39-4.92,7.36-10.71A7.34,7.34,0,0,0,472,755c-1.9-1.33-4.08-1.89-7.26-.49a6.57,6.57,0,0,0-4,5.28A7.05,7.05,0,0,0,466.69,767.92Z"/><path class="cls-1" d="M412.75,739.21a6.94,6.94,0,0,0,3.47-2l-0.72-10.48a4.09,4.09,0,0,0-1.26-.66c-0.28-.14-0.78-0.65-1-0.7a9.69,9.69,0,0,0-4.23.43,5.14,5.14,0,0,0-2.6,1.59,3.69,3.69,0,0,0-1.4,2,6.72,6.72,0,0,0-.72,4.14A7.1,7.1,0,0,0,412.75,739.21Z"/><path class="cls-1" d="M627.39,771.79l-5.47-10.54c0,0.13-.12.3-0.17,0.44C620,765.94,623,770.72,627.39,771.79Z"/><path class="cls-1" d="M492,751.3a8.09,8.09,0,0,0,5.85-6.16c0.58-3.51-1.75-7.18-4-8.22a13.27,13.27,0,0,0-4.7-.62,1,1,0,0,0-.51.36A5.18,5.18,0,0,0,486,738a10.69,10.69,0,0,0-1.06.46,7.54,7.54,0,0,0-1.85,4.33A7.61,7.61,0,0,0,492,751.3Z"/><path class="cls-1" d="M477.27,744a6.24,6.24,0,0,0,.83-1.86c0-.27.14-0.85,0.14-0.89a7.52,7.52,0,0,0-2.39-5.63,5.39,5.39,0,0,0-2-1.39,7.24,7.24,0,0,0-6-.12,7.54,7.54,0,0,0-2.6,1.59,5.83,5.83,0,0,0-1.11,1.91,5.33,5.33,0,0,1-.7,1,13.69,13.69,0,0,0,.29,5.11,5.91,5.91,0,0,0,1.83,2.27,5.34,5.34,0,0,0,2,1.39,5.42,5.42,0,0,0,1.86.84c0.26,0,.85.13,0.89,0.13a7.39,7.39,0,0,0,5.62-2.39A5.47,5.47,0,0,0,477.27,744Z"/><path class="cls-1" d="M295.24,659a7.34,7.34,0,0,0,3.31,2.6,6.71,6.71,0,0,0,8.33-9.84l-12.52,3A9.38,9.38,0,0,0,295.24,659Z"/><path class="cls-1" d="M165.06,598.75a6.1,6.1,0,0,0,.41.78,3,3,0,0,0,.61.19,6.5,6.5,0,0,0,3.26.59c5.48-.93,4.88-8.12,1.22-9.67a5.54,5.54,0,0,0-3.72.05c-1.72.59-2.44,1.31-2.73,2.48,0,0.09-.47.26-0.52,0.37a7.17,7.17,0,0,0,.49,4.51A3.16,3.16,0,0,0,165.06,598.75Z"/><path class="cls-1" d="M283.14,657.39l-1.33.31A7.65,7.65,0,0,0,283.14,657.39Z"/><path class="cls-1" d="M370.26,752.73a7,7,0,0,0,5.29-7.78,6.66,6.66,0,0,0-4-4.79c-0.11,0-.25-0.47-0.36-0.51a7,7,0,0,0-4.28.16c-2.26.7-3.59,2-4,3.56,0,0.1-.47.24-0.5,0.36a5.39,5.39,0,0,0-.09,1.16A6.72,6.72,0,0,0,370.26,752.73Z"/><path class="cls-1" d="M396,716.52a7,7,0,0,0,5.5-8.11,7,7,0,0,0-2.06-3.68,3.6,3.6,0,0,0-2-1.39c-0.27-.13-0.78-0.64-1-0.69a3,3,0,0,0-.47,0l-8.45,6.81a5,5,0,0,0,0,1.35A7.11,7.11,0,0,0,396,716.52Z"/><path class="cls-1" d="M295.59,681.34a7,7,0,0,0,8.23-2.26c3.33-4.69-.7-12.59-7.8-10.45a0.5,0.5,0,0,0-.23.33c-0.17.07-.39,0-0.55,0.1a7.28,7.28,0,0,0-3.8,4.67,9.09,9.09,0,0,0,.86,5A7.48,7.48,0,0,0,295.59,681.34Z"/><path class="cls-1" d="M606.58,788.94a7.62,7.62,0,0,0,7.55-7.88,7.37,7.37,0,0,0-4.9-6.92,8,8,0,0,0-5.72.1,6.77,6.77,0,0,0-4.18,4.15,12.24,12.24,0,0,0-.6,1.55A7.87,7.87,0,0,0,606.58,788.94Z"/><path class="cls-1" d="M591.11,797.59a7.62,7.62,0,0,0-1.51-3.77,9.29,9.29,0,0,0-.47-1.07,11.69,11.69,0,0,0-2.89-1.79,8.88,8.88,0,0,0-5.11.29,7.67,7.67,0,0,0-4.46,4.2,8,8,0,0,0,1.23,7.26c2.29,2.91,7.38,3.53,10.51,1.08A7.51,7.51,0,0,0,591.11,797.59Z"/><path class="cls-1" d="M504.18,772.18l-1.93-9.5A6.58,6.58,0,0,0,504.18,772.18Z"/><path class="cls-1" d="M238.94,423.79a7.38,7.38,0,0,0-.48-2.79,6,6,0,0,0-3.25-2.32,5.91,5.91,0,0,0-2.75.75,3.69,3.69,0,0,0-2.27,3.55c0.1,3.84,2.94,4.81,5.24,4.4l1.33-.44A5.41,5.41,0,0,0,238.94,423.79Z"/><path class="cls-1" d="M595.88,763.2A8.47,8.47,0,0,0,595,753c-2.1-2.07-4.66-3-8.33-1.74a5.88,5.88,0,0,0-3.35,2.29,9.7,9.7,0,0,0-1.81,2.89,9.86,9.86,0,0,0,1.15,6.7,11.51,11.51,0,0,0,4.56,3.23,9.77,9.77,0,0,0,6.7-1.14A9.22,9.22,0,0,0,595.88,763.2Z"/><path class="cls-1" d="M617.37,763a9.26,9.26,0,0,0-2-6.83c-2.18-2.37-4.94-3.42-8.93-1.93-0.18.07-.39,0-0.56,0.1-2.48,1-4.32,4.42-4.48,5.63a10.44,10.44,0,0,0,.94,5.58c0.83,1.61,4.12,3.73,5.54,3.94a8.58,8.58,0,0,0,8-3.37A9,9,0,0,0,617.37,763Z"/><path class="cls-1" d="M608,734.49a6.56,6.56,0,0,0-3.67,4.31,9.15,9.15,0,0,0-.73,2.43,9.33,9.33,0,0,0,3.51,7.15,7.92,7.92,0,0,0,8.41.6Z"/><path class="cls-1" d="M593.47,781.13a8,8,0,0,0,.31-4.94,9.24,9.24,0,0,0-3-4.36,13.86,13.86,0,0,0-3.07-1.2,9,9,0,0,0-3.9.66,6.54,6.54,0,0,0-4.46,4.2,8.43,8.43,0,0,0,1.32,7.8,7.7,7.7,0,0,0,6.47,2.63A7.4,7.4,0,0,0,593.47,781.13Z"/><path class="cls-1" d="M554.68,839.94a7.48,7.48,0,0,0,6.88,0,8.17,8.17,0,0,0,2.55-3.59,6.73,6.73,0,0,0-3.51-7.15,7.48,7.48,0,0,0-5.12.29c-3.54,1.52-4.31,5.63-2.53,8.75A9.91,9.91,0,0,0,554.68,839.94Z"/><path class="cls-1" d="M574.29,774.62a6.67,6.67,0,0,0-1.44-3.49c-0.27-.34-0.2-0.74-0.48-1.06a6.21,6.21,0,0,0-2-1.25l-7.88,12.86a8.2,8.2,0,0,0,4.92,1.29A7.7,7.7,0,0,0,574.29,774.62Z"/><path class="cls-1" d="M567.76,813.89a7.18,7.18,0,0,0-13.67-1.11A7.08,7.08,0,1,0,567.76,813.89Z"/><path class="cls-1" d="M578.77,824.66a7.22,7.22,0,0,0,4-13.88,9,9,0,0,0-4.78.53,6.89,6.89,0,0,0-4.13,4.42A7.67,7.67,0,0,0,578.77,824.66Z"/><path class="cls-1" d="M568.42,800.87a7.07,7.07,0,0,0,1.18-9.95,10.71,10.71,0,0,0-.47-1.07,11.52,11.52,0,0,0-2.89-1.8,8.93,8.93,0,0,0-5.12.29,7.62,7.62,0,0,0-4.44,4.2,8,8,0,0,0,1.23,7.25C560.19,802.7,565.28,803.32,568.42,800.87Z"/><path class="cls-1" d="M480.74,723.93a9,9,0,0,0,.55-3.17l-8.53,7.93a7.59,7.59,0,0,0,1.64.06A7.4,7.4,0,0,0,480.74,723.93Z"/><path class="cls-1" d="M1041.26,482.69a8.09,8.09,0,0,0,0-5.16,7.56,7.56,0,0,0-5.88-4.18,10.62,10.62,0,0,0-3.29.86,6.7,6.7,0,0,0-2.18,1.45l10.75,8.23A5.59,5.59,0,0,0,1041.26,482.69Z"/><path class="cls-1" d="M1033,540.34c0.11-5.74-5.06-8.55-9.73-6.67a5.88,5.88,0,0,0-3.89,4.1,7.1,7.1,0,0,0,9.47,8.43A7.6,7.6,0,0,0,1033,540.34Z"/><path class="cls-1" d="M1031.51,212.28a4.7,4.7,0,0,0-3.19,3.13,5.62,5.62,0,0,0,1.92,6.27,6.62,6.62,0,0,0,3.86.77c5.06-.86,5.48-7.63,2.07-9.81A5.81,5.81,0,0,0,1031.51,212.28Z"/><path class="cls-1" d="M1044.75,253.08a0.47,0.47,0,0,0-.23.33c-0.17.07-.39,0-0.56,0.09a7.32,7.32,0,0,0-3.81,4.66,9.14,9.14,0,0,0,.86,5,7.43,7.43,0,0,0,3.31,2.59,7,7,0,0,0,8.22-2.27C1055.88,258.83,1051.86,250.93,1044.75,253.08Z"/><path class="cls-1" d="M1030,560.06c0.11-5.73-5.07-8.53-9.74-6.67a5.92,5.92,0,0,0-3.89,4.11,7.1,7.1,0,0,0,9.46,8.45A7.62,7.62,0,0,0,1030,560.06Z"/><path class="cls-1" d="M182.84,377.35c-0.05,0,1.12-1.45,1.16-1.63a4.74,4.74,0,0,0-.47-2.79,7.05,7.05,0,0,0-1.63-1.15,3.1,3.1,0,0,0-1.67.28,4.41,4.41,0,0,0-1.12.19,14.51,14.51,0,0,0-1.16,1.62C177.31,376.19,180.39,379,182.84,377.35Z"/><path class="cls-1" d="M1055.28,457.06a0.4,0.4,0,0,0-.22.32,4.55,4.55,0,0,0-.56.1,7.25,7.25,0,0,0-3.8,4.65,9.12,9.12,0,0,0,.85,5,7.22,7.22,0,0,0,3.31,2.59,7,7,0,0,0,8.23-2.26C1066.41,462.79,1062.38,454.9,1055.28,457.06Z"/><path class="cls-1" d="M976.15,651.86a7.12,7.12,0,0,0-9.37-6.16,0.46,0.46,0,0,0-.22.32,5.82,5.82,0,0,0-3.95,3.83,7.08,7.08,0,0,0,7.1,9.7A7,7,0,0,0,976.15,651.86Z"/><path class="cls-1" d="M979,631.56a7.2,7.2,0,0,0-13.68-1.12A7.09,7.09,0,1,0,979,631.56Z"/><path class="cls-1" d="M1017.59,573.07a5.93,5.93,0,0,0-3.89,4.1,7.1,7.1,0,0,0,9.47,8.44,7.65,7.65,0,0,0,4.17-5.87C1027.43,574,1022.26,571.2,1017.59,573.07Z"/><path class="cls-1" d="M980.84,616.91c0.12-.29.35-0.41,0.46-0.65a6,6,0,0,0,.41-1.41l-14.16-3.22a11.36,11.36,0,0,0,1,5.38,8.15,8.15,0,0,0,4.58,3.23,7.84,7.84,0,0,0,6.78-2.3A5.22,5.22,0,0,0,980.84,616.91Z"/><path class="cls-1" d="M1023.81,601.28a7.89,7.89,0,0,0,0-5.15,7.53,7.53,0,0,0-5.87-4.18,7.64,7.64,0,0,0-2.45.53l7.57,10.23A5.65,5.65,0,0,0,1023.81,601.28Z"/><path class="cls-1" d="M1118.13,369.19a6.15,6.15,0,0,0-2.72-4.13,7.42,7.42,0,0,0-7.72.17c-0.38.5-.94,1-1.22,1.35s-1.12,2-1.11,1.9c-0.43,1.66.4,5.16,1.27,5.81,0.55,0.38.95,0.92,1.35,1.2s1.85,1.1,1.92,1.11c1.47,0.4,5.06-.28,5.81-1.27C1117,373.67,1118.57,371.86,1118.13,369.19Z"/><path class="cls-1" d="M212.6,403.86a7.66,7.66,0,0,0,3.26,2.32,8.06,8.06,0,0,0,5-.86,7,7,0,0,0,1.45-1.63l-8.93-7.13A5.79,5.79,0,0,0,212.6,403.86Z"/><path class="cls-1" d="M492.35,171.27l7.43,8.69a6.89,6.89,0,0,0,.26-3.13A6.77,6.77,0,0,0,492.35,171.27Z"/><path class="cls-1" d="M196.34,394.29c-1.94.8-2.54,1.91-2.22,3.82a3.54,3.54,0,0,0,4.51,3C203.3,400,201.54,392.15,196.34,394.29Z"/><path class="cls-1" d="M213.39,418.65a1.92,1.92,0,0,0,1.45,3.49,1.89,1.89,0,0,0,1.57-2.57A1.85,1.85,0,0,0,213.39,418.65Z"/><path class="cls-1" d="M511.43,193.59l5.71,6.69a6.5,6.5,0,0,0,0-.79A7.5,7.5,0,0,0,511.43,193.59Z"/><path class="cls-1" d="M928.59,216.28a6.33,6.33,0,0,0-3.84,4.52l6.72-5.33A12.57,12.57,0,0,0,928.59,216.28Z"/><path class="cls-1" d="M722.41,144.53c-0.28-.12-0.78-0.65-1-0.69a9.43,9.43,0,0,0-4.23.43,5.14,5.14,0,0,0-2.6,1.58,3.67,3.67,0,0,0-1.39,2,6.72,6.72,0,0,0-.73,4.15,7.07,7.07,0,1,0,13.95-2.37,7,7,0,0,0-2.06-3.67A3.63,3.63,0,0,0,722.41,144.53Z"/><path class="cls-1" d="M906.49,232.63l0.36,2.39,3.54-2.81A10.1,10.1,0,0,0,906.49,232.63Z"/><path class="cls-1" d="M709.47,168a8,8,0,0,0,1.22,7.25,7.87,7.87,0,0,0,8.76,2l4.35-5.52a6.66,6.66,0,0,0,.1-1.63,7.55,7.55,0,0,0-1.51-3.76,8.11,8.11,0,0,0-.47-1.07,12.15,12.15,0,0,0-2.89-1.8,9,9,0,0,0-5.12.29A7.59,7.59,0,0,0,709.47,168Z"/><path class="cls-1" d="M702.19,162.31a11.63,11.63,0,0,0-2.89-1.8,5,5,0,0,0-1.23-.23l4.16,12.25a7.61,7.61,0,0,0,1.92-5.4,7.54,7.54,0,0,0-1.5-3.77A8.84,8.84,0,0,0,702.19,162.31Z"/><path class="cls-1" d="M708.54,184.48a5.15,5.15,0,0,0-1.54,2.1l1.55,4.55,6.44-8.2a8.36,8.36,0,0,0-4.08.29A6,6,0,0,0,708.54,184.48Z"/><path class="cls-1" d="M915.94,751.89a6.23,6.23,0,1,0-2.63-12.17,0.39,0.39,0,0,0-.23.33c-2.15.69-3.27,1.84-3.71,3.5,0,0.11-.48.23-0.51,0.36a9.7,9.7,0,0,0-.09,2.89A6.36,6.36,0,0,0,915.94,751.89Z"/><path class="cls-1" d="M670.12,777.86a7.94,7.94,0,1,0-3.76-15.43,0.41,0.41,0,0,0-.24.33,8.44,8.44,0,0,0-3.58,2.2l-1.85,6.12A8,8,0,0,0,670.12,777.86Z"/><path class="cls-1" d="M1047.94,565.92a6.09,6.09,0,0,0-.35-7.12,6.37,6.37,0,0,0-2.6-1.85,5.63,5.63,0,0,0-4,.11,3.14,3.14,0,0,0-1.57.84,6,6,0,0,0,.17,9.43A6.42,6.42,0,0,0,1047.94,565.92Z"/><path class="cls-1" d="M1079.6,607c-0.49-2.07-2.3-2.79-4.33-1.85a2.67,2.67,0,0,0-1.7,3.45C1074.46,612.4,1080.62,611.31,1079.6,607Z"/><path class="cls-1" d="M1042.66,605.84c3.34-4.7-.69-12.59-7.8-10.44a0.43,0.43,0,0,0-.23.33,3.52,3.52,0,0,0-.55.09,7.26,7.26,0,0,0-3.81,4.65,9.09,9.09,0,0,0,.85,5,7.37,7.37,0,0,0,3.31,2.59A7,7,0,0,0,1042.66,605.84Z"/><path class="cls-1" d="M1066.82,563.86a4.75,4.75,0,0,0-3.64-2.84,4.92,4.92,0,0,0-2.19.67,3.67,3.67,0,0,0-2.5,3.86,4.27,4.27,0,0,0,4.44,4.14A4.35,4.35,0,0,0,1066.82,563.86Z"/><path class="cls-1" d="M1062.83,584.33c-0.49-2.08-2.3-2.79-4.33-1.85a2.67,2.67,0,0,0-1.71,3.44C1057.7,589.71,1063.85,588.62,1062.83,584.33Z"/><path class="cls-1" d="M1046,583.45a6.62,6.62,0,0,0-4.07-7.06,7.72,7.72,0,0,0-4.23.44,5.7,5.7,0,0,0-3.62,4,9,9,0,0,0,.77,4.48,6.83,6.83,0,0,0,3.93,2.78A6.47,6.47,0,0,0,1046,583.45Z"/><path class="cls-1" d="M996.43,632.63a4.23,4.23,0,0,0-2.34-1.9,5.42,5.42,0,0,0-4.32-.13,4.47,4.47,0,0,0-3,2.79c-0.73,1.92-.89,3.51.34,5.39a3.45,3.45,0,0,0,2,1.67c0.11,0,.25.47,0.37,0.52a7,7,0,0,0,3.5.27A5.69,5.69,0,0,0,996.43,632.63Z"/><path class="cls-1" d="M1019.56,623.45l-8.51-1.93-3.18-.73a7.07,7.07,0,0,0,.18,1,7.94,7.94,0,0,0,4.07,3.62A7,7,0,0,0,1019.56,623.45Z"/><path class="cls-1" d="M1009.78,680.88a5.37,5.37,0,0,0,.68-2.71c-0.14-4-3.52-5.83-7-4.26a4.3,4.3,0,0,0-2.72,4.2,5.46,5.46,0,0,0,2.14,4.22A5.32,5.32,0,0,0,1009.78,680.88Z"/><path class="cls-1" d="M1015.75,641.69a5.54,5.54,0,0,0-1.23-7.25c-1.86-1.33-2.92-1.25-5.49-.21a4.65,4.65,0,0,0-1.07.46,8,8,0,0,0-1.76,3.17,5.12,5.12,0,0,0,2.3,5.06A5.58,5.58,0,0,0,1015.75,641.69Z"/><path class="cls-1" d="M987.71,616.2a8.93,8.93,0,0,0,.71,3.14,7.51,7.51,0,0,0,2.38,2.19,7.64,7.64,0,0,0,2.85,1.52,8.88,8.88,0,0,0,4.45-.75,7.41,7.41,0,0,0,2.18-2.38c0.18-.26.33-0.5,0.49-0.75Z"/><path class="cls-1" d="M1098.17,488.22a3,3,0,0,0-1.13-1.53,6.71,6.71,0,0,0-.42-0.79,3.51,3.51,0,0,0-.6-0.18,3.2,3.2,0,0,0-2.89-.08c-1.52.51-2,1.06-2.23,2.09a6.17,6.17,0,0,0-.5.37,7.4,7.4,0,0,0,0,1.72,4,4,0,0,0,4.56,3.24A4.17,4.17,0,0,0,1098.17,488.22Z"/><path class="cls-1" d="M1096.24,512.37c1.48-2.09,1.38-6.74-1.75-8.6a5.84,5.84,0,0,0-4.94-.31c-2.18.7-2.72,1.26-3.34,2.29a6.49,6.49,0,0,0,1.65,8A6.42,6.42,0,0,0,1096.24,512.37Z"/><path class="cls-1" d="M1080.44,485.21a6.36,6.36,0,0,0-7.74-5,0.39,0.39,0,0,0-.23.33c-2.14.69-3.28,1.83-3.71,3.5,0,0.1-.47.23-0.51,0.36a9.91,9.91,0,0,0-.09,2.88A6.23,6.23,0,0,0,1080.44,485.21Z"/><path class="cls-1" d="M1063.45,538.88a0.48,0.48,0,0,0-.24.33,4.71,4.71,0,0,0-.56.1,7.29,7.29,0,0,0-3.8,4.65,9,9,0,0,0,.85,5,7.33,7.33,0,0,0,3.3,2.6,7,7,0,0,0,8.23-2.25C1074.56,544.66,1070.56,536.74,1063.45,538.88Z"/><path class="cls-1" d="M1103.6,467.79a6.44,6.44,0,0,0-4.86-4.91,6.68,6.68,0,0,0-3.67.32c-3.34,1.18-4.62,3.62-4.26,7,0.34,3.24,4,6.07,7.78,5.28A6.54,6.54,0,0,0,1103.6,467.79Z"/><path class="cls-1" d="M993.76,657.48a6,6,0,0,0,.51-0.38c0.49-1.79-.31-4.6-1.18-5.24a6.51,6.51,0,0,0-2.22-1.34c-0.13,0-.25-0.48-0.38-0.51a6.25,6.25,0,0,0-2.83.19c-3.14.77-3.47,2.1-3.76,3.23a3.13,3.13,0,0,0-.52.37,16.22,16.22,0,0,0-.17,2.33,6,6,0,0,0,6.86,4.86,12.86,12.86,0,0,0,2.37-1.26A6.92,6.92,0,0,0,993.76,657.48Z"/><path class="cls-1" d="M1082.76,470.18c3.34-4.7-.69-12.6-7.8-10.44a0.48,0.48,0,0,0-.23.32c-0.17.07-.39,0-0.56,0.09a7.34,7.34,0,0,0-3.8,4.67,9.13,9.13,0,0,0,.86,5,7.39,7.39,0,0,0,3.31,2.6A7,7,0,0,0,1082.76,470.18Z"/><path class="cls-1" d="M1074.2,529.6c3.33-4.69-.7-12.58-7.8-10.44a0.47,0.47,0,0,0-.23.33,5.46,5.46,0,0,0-.56.09,7.24,7.24,0,0,0-3.8,4.67,9.14,9.14,0,0,0,.85,5,7.31,7.31,0,0,0,3.31,2.59A7,7,0,0,0,1074.2,529.6Z"/><path class="cls-1" d="M1085.25,567.6a2.61,2.61,0,0,0-3.73-1.65c-1.9.8-2,2-1.81,2.89C1080.34,572.57,1086.2,571.35,1085.25,567.6Z"/><path class="cls-1" d="M1069.41,499.71a6.32,6.32,0,0,0-3.81,3.26l10.41,8a6.53,6.53,0,0,0,2.29-6.13A6.7,6.7,0,0,0,1069.41,499.71Z"/><path class="cls-1" d="M1091.36,546.2a5.77,5.77,0,0,0-3.78-3.67,6.88,6.88,0,0,0-4.56.2,5.29,5.29,0,0,0-3.2,3.13,6.3,6.3,0,0,0,5.8,8.78A6.4,6.4,0,0,0,1091.36,546.2Z"/><path class="cls-1" d="M1042.33,520a5,5,0,0,0-.52,1.36,9,9,0,0,0,.85,5,7.39,7.39,0,0,0,3.31,2.6,6.73,6.73,0,0,0,7.39-11l-0.61.11Z"/><path class="cls-1" d="M1055.57,610.83a6.47,6.47,0,0,0,7.23-4.68,6.6,6.6,0,0,0-4.07-7.06,7.66,7.66,0,0,0-4.23.44,5.62,5.62,0,0,0-3.61,4.05,8.9,8.9,0,0,0,.75,4.46A6.88,6.88,0,0,0,1055.57,610.83Z"/><path class="cls-1" d="M792.13,793.31a7.08,7.08,0,0,0,1.17-10,10.53,10.53,0,0,0-.47-1.07,11.94,11.94,0,0,0-2.89-1.82,9.06,9.06,0,0,0-5.12.31,7.52,7.52,0,0,0-1.63.86l-0.74,11.44A8,8,0,0,0,792.13,793.31Z"/><path class="cls-1" d="M795.8,762.54a7,7,0,0,0-7.5-1.88,6.25,6.25,0,0,0-2.41,1,7.13,7.13,0,0,0-1.5,1.68l-0.55,8.5c0,0.06,0,.14.08,0.21a10.58,10.58,0,0,0,2,1.94,8,8,0,0,0,10.6-1.79A7.76,7.76,0,0,0,795.8,762.54Z"/><path class="cls-1" d="M805.49,797.63a7.9,7.9,0,0,0,6.78-2.3,5,5,0,0,0,1-1c0.14-.29.36-0.42,0.46-0.66a8.89,8.89,0,0,0-.35-7.12,7.74,7.74,0,0,0-3.31-2.59,7.53,7.53,0,0,0-6,.17,5.91,5.91,0,0,0-3.43,3.45,11.44,11.44,0,0,1-.65,1.25,10.65,10.65,0,0,0,1,5.58A8.2,8.2,0,0,0,805.49,797.63Z"/><path class="cls-1" d="M728.59,783.27l-4.68-5.84a4,4,0,0,0-.26,1.38C723.76,782.48,726.33,783.55,728.59,783.27Z"/><path class="cls-1" d="M816.66,773.92a5.76,5.76,0,0,0,.83-1.86c0-.26.15-0.84,0.15-0.88a7.51,7.51,0,0,0-2.39-5.61,5.15,5.15,0,0,0-2-1.39,7.2,7.2,0,0,0-6-.12,7.51,7.51,0,0,0-2.6,1.59,6.08,6.08,0,0,0-1.1,1.9,5.58,5.58,0,0,1-.69,1,13.68,13.68,0,0,0,.29,5.11,5.9,5.9,0,0,0,1.82,2.27,5.59,5.59,0,0,0,2,1.39,5.16,5.16,0,0,0,1.86.83l0.89,0.14a7.38,7.38,0,0,0,5.61-2.38A5.14,5.14,0,0,0,816.66,773.92Z"/><path class="cls-1" d="M709.53,783.51a7.66,7.66,0,1,0-3.39-14.92,0.41,0.41,0,0,0-.24.33,7.2,7.2,0,0,0-5.13,8.62A7.69,7.69,0,0,0,709.53,783.51Z"/><path class="cls-1" d="M703.3,755.29a7.91,7.91,0,0,0,7,8.88,9.23,9.23,0,0,0,2.84-.24l-9-11.25A7.87,7.87,0,0,0,703.3,755.29Z"/><path class="cls-1" d="M694.55,768a11.5,11.5,0,0,0-1.39-1.48,7.74,7.74,0,0,0-.89-0.14c-0.49-.22-1-0.82-1.31-0.93a10.38,10.38,0,0,0-4.56.2,9,9,0,0,0-2.68,1,8.62,8.62,0,0,0-.7,1c-0.36.36-.86,0.54-1,0.75a6.18,6.18,0,0,0-.13.89c-0.12.25-.64,0.43-0.75,0.7a8.16,8.16,0,0,0,8.73,10.87C696,779.79,698.11,772.31,694.55,768Z"/><path class="cls-1" d="M686.84,800.28a7.66,7.66,0,1,0-3.39-14.92,0.37,0.37,0,0,0-.24.32,7.22,7.22,0,0,0-5.13,8.63A7.68,7.68,0,0,0,686.84,800.28Z"/><path class="cls-1" d="M820.69,750.28a6.57,6.57,0,0,0-1.46-3.48,10,10,0,0,0-.46-1.05,7.07,7.07,0,0,0-2.25-1.36,4.7,4.7,0,0,0-.65-0.47,7.89,7.89,0,0,0-5.44.07,6.05,6.05,0,0,0-2.36,1.25,5.55,5.55,0,0,0-1.63,2.28,6.75,6.75,0,0,0-1.06,3.92A7.67,7.67,0,1,0,820.69,750.28Z"/><path class="cls-1" d="M699.3,752c-0.41-2.46-2.68-5.27-4.72-5.8-0.1,0-.24-0.46-0.37-0.5a9.43,9.43,0,0,0-5.17,0,7.15,7.15,0,0,0-5.42,5.22,8.14,8.14,0,0,0,9.24,10.48A8.43,8.43,0,0,0,699.3,752Z"/><path class="cls-1" d="M967,665.66l5.39,9.66a5.45,5.45,0,0,0,.71-4A6.75,6.75,0,0,0,967,665.66Z"/><path class="cls-1" d="M924.18,704a3.74,3.74,0,0,0-2-1.39,3.41,3.41,0,0,0-3.4.29,3.47,3.47,0,0,0-1.91,2.34C916.23,712.19,927.15,710.41,924.18,704Z"/><path class="cls-1" d="M919.95,721.38a5.58,5.58,0,0,0-3.72.05c-1.71.59-2.43,1.31-2.74,2.48,0,0.1-.45.26-0.5,0.38-0.46,1-.05,3.61.48,4.5a3.09,3.09,0,0,0,1,.71,6.4,6.4,0,0,0,.42.78,3,3,0,0,0,.61.19,6.49,6.49,0,0,0,3.25.59C924.19,730.13,923.6,722.93,919.95,721.38Z"/><path class="cls-1" d="M983.65,668.95a0.48,0.48,0,0,0-.23.32c-0.17.07-.4,0-0.57,0.1a7.27,7.27,0,0,0-3.79,4.66,9.12,9.12,0,0,0,.85,5,7.37,7.37,0,0,0,3.32,2.6,7,7,0,0,0,8.22-2.26C994.77,674.7,990.75,666.8,983.65,668.95Z"/><path class="cls-1" d="M980.68,688.68a0.46,0.46,0,0,0-.23.33,1.68,1.68,0,0,1-.34.05l6.54,11.69a6.5,6.5,0,0,0,1.83-1.64C991.81,694.43,987.79,686.53,980.68,688.68Z"/><path class="cls-1" d="M900.65,677a6.6,6.6,0,0,0-4,5.27,7.06,7.06,0,0,0,6,8.16c5.67,0.64,10.38-4.92,7.36-10.71a7.05,7.05,0,0,0-2-2.11l-2.3-1.13A7.14,7.14,0,0,0,900.65,677Z"/><path class="cls-1" d="M873.73,726.35c3.18,2.24,8.65,1,10.6-1.8a8.34,8.34,0,0,0,.3-8.37c-0.26-.5-1.19-1.36-1.45-1.77a3.43,3.43,0,0,0-1.86-.83c-0.09,0-.25-0.47-0.37-0.51a9.12,9.12,0,0,0-6,.43c-2.24.93-3.11,2.22-3.43,3.45,0,0.11-.46.25-0.51,0.37-0.71,1.9-.06,5.59.57,6.79A9.53,9.53,0,0,0,873.73,726.35Z"/><path class="cls-1" d="M867.4,692.42a11.81,11.81,0,0,0-1.41-1.49,5.09,5.09,0,0,0-.88-0.14c-0.5-.22-1-0.83-1.31-0.93a9.62,9.62,0,0,0-4.21.14l4,15A8,8,0,0,0,867.4,692.42Z"/><path class="cls-1" d="M816.26,719.19h0.12L816,719A2.18,2.18,0,0,0,816.26,719.19Z"/><path class="cls-1" d="M822.06,726.23a15,15,0,0,0-1.4-1.49,6.11,6.11,0,0,0-.88-0.13c-0.5-.23-1-0.83-1.31-0.93a10.12,10.12,0,0,0-4.55.2,9.09,9.09,0,0,0-2.7,1,8.18,8.18,0,0,0-.69,1c-0.36.36-.86,0.52-1,0.74a7.77,7.77,0,0,0-.14.89c-0.12.25-.64,0.43-0.74,0.7a8.16,8.16,0,0,0,8.74,10.87C823.47,738,825.62,730.58,822.06,726.23Z"/><path class="cls-1" d="M899.09,730.36a7,7,0,0,0,5.65-5.55,6.11,6.11,0,0,0-.94-5.57c-1.61-2.54-3.66-3.53-7.18-3.37a1.09,1.09,0,0,0-.51.36,7.89,7.89,0,0,0-4.4,2.78,9.43,9.43,0,0,0-1.06,5.62A7.64,7.64,0,0,0,899.09,730.36Z"/><path class="cls-1" d="M888.72,699.71a6.5,6.5,0,0,0-1.45-3.49c-0.26-.34-0.19-0.75-0.47-1.07a7,7,0,0,0-2.23-1.34,6.26,6.26,0,0,0-.66-0.46,7.87,7.87,0,0,0-5.43.06,6.1,6.1,0,0,0-2.38,1.27,5.54,5.54,0,0,0-1.62,2.28,6.7,6.7,0,0,0-1.06,3.92A7.68,7.68,0,1,0,888.72,699.71Z"/><path class="cls-1" d="M195.32,577.55a7.3,7.3,0,0,0-1.22-2.09,3.33,3.33,0,0,0-1.1-.6h-3.29a3.36,3.36,0,0,0-2.3,1.73c-0.06.12-.34,1.07-0.38,1.22-0.66,4.24,5,6.51,7.46,3.32A5.24,5.24,0,0,0,195.32,577.55Z"/><path class="cls-1" d="M1032.87,260.84c3.33-4.69-.7-12.6-7.8-10.44a0.41,0.41,0,0,0-.23.32c-0.16.07-.39,0-0.55,0.09a7.32,7.32,0,0,0-3.81,4.67,9.17,9.17,0,0,0,.86,5,7.38,7.38,0,0,0,3.31,2.59A7,7,0,0,0,1032.87,260.84Z"/><path class="cls-1" d="M1015.76,379.05a6.48,6.48,0,0,0,1.09-3,7,7,0,0,0-2.39-5.6l-8.39,4.42Z"/><path class="cls-1" d="M1014.13,216.38a2,2,0,0,0,1.39-2,1.94,1.94,0,0,0-2.94-2.08,2.54,2.54,0,0,0-.61.45l-0.5,2.31A2.27,2.27,0,0,0,1014.13,216.38Z"/><path class="cls-1" d="M1028,230.38a0.45,0.45,0,0,0-.24.34c-0.16.06-.39,0-0.56,0.1a7.27,7.27,0,0,0-3.79,4.65,9,9,0,0,0,.86,5,7.32,7.32,0,0,0,3.3,2.6,7,7,0,0,0,8.23-2.27C1039.11,236.14,1035.08,228.24,1028,230.38Z"/><path class="cls-1" d="M998.64,277.27a7.36,7.36,0,0,0,3.31,2.6,7,7,0,0,0,8.22-2.26c3.33-4.7-.7-12.59-7.8-10.44a0.49,0.49,0,0,0-.23.33c-0.16.06-.39,0-0.56,0.09a6.09,6.09,0,0,0-1.71,1.2l-1.63,7.55A7.13,7.13,0,0,0,998.64,277.27Z"/><path class="cls-1" d="M1051.89,489.49a7,7,0,0,0,8.23-2.27c3.33-4.69-.71-12.59-7.8-10.45a0.46,0.46,0,0,0-.23.34c-0.17.05-.39,0-0.56,0.08a7.23,7.23,0,0,0-3.79,4.66,8.88,8.88,0,0,0,.86,5A7.25,7.25,0,0,0,1051.89,489.49Z"/><path class="cls-1" d="M198.15,516.51a16.42,16.42,0,0,0-1.16,1.63c-0.63,2.31,2.44,5.12,4.89,3.47-0.05,0,1.11-1.46,1.16-1.63a4.79,4.79,0,0,0-.48-2.79,7.23,7.23,0,0,0-1.63-1.16,3.61,3.61,0,0,0-1.67.28A5.88,5.88,0,0,0,198.15,516.51Z"/><path class="cls-1" d="M1044.22,457.79a7.56,7.56,0,0,0-5.88-4.18,10.78,10.78,0,0,0-3.29.86c-3.79,1.53-4.92,5.56-3.65,8.95a7.91,7.91,0,0,0,4.07,3.6,7,7,0,0,0,8.77-4.07A8.08,8.08,0,0,0,1044.22,457.79Z"/><path class="cls-1" d="M203,505.93a6.61,6.61,0,0,0,6.2-9.09c-1-2.93-4.69-5-8.66-3.7a0.58,0.58,0,0,0-.23.34c-3.32,1.41-4.78,4.51-3.45,8.33A6.67,6.67,0,0,0,203,505.93Z"/><path class="cls-1" d="M1004.91,260.13a6.94,6.94,0,0,0,8.22-2.26c3.33-4.69-.69-12.59-7.79-10.45a0.49,0.49,0,0,0-.23.34,5.06,5.06,0,0,0-.56.1c-0.07,0-.11.08-0.18,0.12l-2.22,10.28A8.78,8.78,0,0,0,1004.91,260.13Z"/><path class="cls-1" d="M1008.8,239.1a7.85,7.85,0,0,0,4.28-.16c0.07,0,.38-0.58.47-0.65a8.1,8.1,0,0,0,1.06-.47,4.91,4.91,0,0,0,1.07-2.19,6.46,6.46,0,0,0-1.22-5.53,4.55,4.55,0,0,0-2.23-1.34,5.61,5.61,0,0,0-3.76.3l-1.85,8.53A4.88,4.88,0,0,0,1008.8,239.1Z"/><path class="cls-1" d="M249.28,505a6.92,6.92,0,0,0-9.09-6.2,0.41,0.41,0,0,0-.23.32,6,6,0,0,0-1.86.88c-1.2,1.62-2.65,3.36-2.49,5.59a7.18,7.18,0,0,0,3.36,5.37l10.27-5.13A5.68,5.68,0,0,0,249.28,505Z"/><path class="cls-1" d="M1041.41,285.79a7,7,0,0,0,8.22-2.26c3.33-4.69-.7-12.6-7.79-10.44a0.42,0.42,0,0,0-.23.33c-0.17.06-.4,0-0.56,0.09a7.26,7.26,0,0,0-3.8,4.67,9,9,0,0,0,.85,5A7.17,7.17,0,0,0,1041.41,285.79Z"/><path class="cls-1" d="M981.51,546.49a0.11,0.11,0,0,0,0,0l8.24,11.14a7.26,7.26,0,0,0,1.12-5.3A7.35,7.35,0,0,0,981.51,546.49Z"/><path class="cls-1" d="M886.3,668.54a6.74,6.74,0,0,0,2.71-.24l-9.36-4.58A7.86,7.86,0,0,0,886.3,668.54Z"/><path class="cls-1" d="M1029.88,364.94a7,7,0,0,0,8.23-2.25,6.66,6.66,0,0,0,1-5.24l-11.49,6.06A10,10,0,0,0,1029.88,364.94Z"/><path class="cls-1" d="M1011.38,455.33a7.08,7.08,0,1,0,13.67,1.11,6.56,6.56,0,0,0-2.74-4.36l-10.62,2.6A5.51,5.51,0,0,0,1011.38,455.33Z"/><path class="cls-1" d="M1046.28,375.36a7.27,7.27,0,0,0-3.79,4.66,9.09,9.09,0,0,0,.86,5,7.33,7.33,0,0,0,3.31,2.59,7,7,0,0,0,8.22-2.25c3.33-4.7-.7-12.59-7.79-10.44a0.4,0.4,0,0,0-.24.32C1046.67,375.33,1046.45,375.28,1046.28,375.36Z"/><path class="cls-1" d="M214.65,586.6a8.26,8.26,0,0,0,2.55-3.58,6.71,6.71,0,0,0-3.52-7.15,7.34,7.34,0,0,0-5.1.29c-3.55,1.52-4.31,5.63-2.53,8.75a10.81,10.81,0,0,0,1.72,1.72A7.54,7.54,0,0,0,214.65,586.6Z"/><path class="cls-1" d="M852.07,661.7a8.33,8.33,0,0,0,3.48-8.6,7.67,7.67,0,0,0-.42-1.38l-6.56-3.21Z"/><path class="cls-1" d="M256.2,591.3c3.32-4.66-.68-12.58-7.8-10.43a0.41,0.41,0,0,0-.24.32c-0.16.07-.39,0-0.55,0.09a7.31,7.31,0,0,0-3.8,4.66,9.14,9.14,0,0,0,.85,5,7.44,7.44,0,0,0,3.32,2.6A7,7,0,0,0,256.2,591.3Z"/><path class="cls-1" d="M225.61,598.8a5.65,5.65,0,0,0-3.61,4.05,8.81,8.81,0,0,0,.75,4.48,6.89,6.89,0,0,0,3.91,2.77,6.49,6.49,0,0,0,7.25-4.67,6.63,6.63,0,0,0-4.08-7.06A7.63,7.63,0,0,0,225.61,598.8Z"/><path class="cls-1" d="M236.47,588.35c3.32-4.69-.72-12.6-7.81-10.44a0.44,0.44,0,0,0-.22.33c-0.17.06-.39,0-0.56,0.1a7.2,7.2,0,0,0-3.79,4.66,8.94,8.94,0,0,0,.85,5,7.3,7.3,0,0,0,3.31,2.6A7,7,0,0,0,236.47,588.35Z"/><path class="cls-1" d="M246.46,601.58a1.21,1.21,0,0,0-.5.37,5.32,5.32,0,0,0-3.84,6.1,5.82,5.82,0,0,0,6.52,4.63,5.9,5.9,0,0,0,4-8.43C251.77,602.6,249.22,601.28,246.46,601.58Z"/><path class="cls-1" d="M179.83,501.54a7.48,7.48,0,0,0,6.89,0,8.34,8.34,0,0,0,2.55-3.59,6.77,6.77,0,0,0-3.51-7.16,7.47,7.47,0,0,0-5.12.3c-3.54,1.53-4.32,5.63-2.52,8.76A10.09,10.09,0,0,0,179.83,501.54Z"/><path class="cls-1" d="M612.58,168.63a0.39,0.39,0,0,0-.22.33c-2.4.79-3.79,2.22-4.22,3.87,0,0.12-.47.25-0.51,0.37a6.55,6.55,0,0,0-.09,1.17,7.41,7.41,0,0,0,1.43,5.91l4.3-11.74A6.86,6.86,0,0,0,612.58,168.63Z"/><path class="cls-1" d="M1032.38,615.34l7.53,10.17C1042.79,620.9,1039,613.69,1032.38,615.34Z"/><path class="cls-1" d="M448.74,753.47a5.91,5.91,0,0,0-2.74.75,3.67,3.67,0,0,0-2.27,3.54c0.13,4.5,4,5.12,6.43,4.07a5.36,5.36,0,0,0,2.32-3.26,7.17,7.17,0,0,0-.47-2.78A6.14,6.14,0,0,0,448.74,753.47Z"/><path class="cls-1" d="M544.61,810.78l-3,4.95A3.6,3.6,0,0,0,544.61,810.78Z"/><path class="cls-1" d="M351.1,746.24c1.61-.79,1.86-3.62,1.14-5.08a9.54,9.54,0,0,0-1-1,3.16,3.16,0,0,0-1.19-.5l-4.5,3.62C345.74,746.51,348.91,747.31,351.1,746.24Z"/><path class="cls-1" d="M373,733.05a6.83,6.83,0,0,0,5.56-7.83,6.39,6.39,0,0,0-4-4.78,1.14,1.14,0,0,1-.22-0.32l-9,7.28A6.7,6.7,0,0,0,373,733.05Z"/><path class="cls-1" d="M1112,470.09c-1.48,3.62,1.56,7.51,4.43,7.57,3.71,0.06,6-2.87,6-5a5.78,5.78,0,0,0-2.91-5.25,6,6,0,0,0-4.89,0A4.19,4.19,0,0,0,1112,470.09Z"/><path class="cls-1" d="M1158.42,342.83a6.51,6.51,0,0,0,5-7.75c-0.88-4.26-5.15-5.94-8.8-4.52a6.44,6.44,0,0,0-3.31,2.56,7,7,0,0,0-.63,4.71A6.48,6.48,0,0,0,1158.42,342.83Z"/><path class="cls-1" d="M1097.57,433.67a6.44,6.44,0,0,0,6.44,2.77,6.89,6.89,0,0,0,5.55-5.71Z"/><path class="cls-1" d="M1161.6,319.33c1.35-.67,1.64-2.92,1-4.19s-2.55-1.69-4.14-.73C1155,316.52,1158.62,320.81,1161.6,319.33Z"/><path class="cls-1" d="M1140.37,339.58a9.19,9.19,0,0,0,3.7-5.22c-0.22-5-2.77-6.68-5.88-7.61-1.18.38-3.22,0.17-3.87,0.95-2.32.87-3,2.94-3.75,4.94Q1131.41,341.81,1140.37,339.58Z"/><path class="cls-1" d="M178.84,514.34c-1,.5-1,1.74-0.6,3.26,1.59,1.78,5.72.35,4.08-3a2.44,2.44,0,0,1-1.3-.93C180.38,514,178.94,513.67,178.84,514.34Z"/><path class="cls-1" d="M1143.58,312.93a3.36,3.36,0,0,0-4.37-2.14c-1.7.63-2.7,1.78-2.22,3.83C1138,318.82,1144.64,317.32,1143.58,312.93Z"/><path class="cls-1" d="M186.42,621.53a4,4,0,0,0,2.68-4.48,3.85,3.85,0,0,0-4.19-2.72,1.09,1.09,0,0,0-.51.36,3.41,3.41,0,0,0-2.51,3.88A3.92,3.92,0,0,0,186.42,621.53Z"/><path class="cls-1" d="M194.87,596.84c-0.89-4.26-5.16-5.94-8.81-4.53a6.51,6.51,0,0,0-3.29,2.57,7,7,0,0,0-.64,4.69A6.52,6.52,0,1,0,194.87,596.84Z"/><path class="cls-1" d="M1111.74,515.77a4.18,4.18,0,0,0,3.19-4.86,3,3,0,0,0-1.12-1.53,7.36,7.36,0,0,0-.43-0.79,3.94,3.94,0,0,0-.61-0.18,3.2,3.2,0,0,0-2.88-.07c-1.52.51-2,1.07-2.23,2.09,0,0.12-.46.24-0.5,0.38a7.07,7.07,0,0,0,0,1.73A4,4,0,0,0,1111.74,515.77Z"/><path class="cls-1" d="M1031.72,526.19c1.85-.69,3.54-3.09,4-5l-12.55,2.29A7.29,7.29,0,0,0,1031.72,526.19Z"/><path class="cls-1" d="M161.74,489.69c-5,1.94-2.28,9,2.5,7.89C169.57,496.41,167.53,487.43,161.74,489.69Z"/><path class="cls-1" d="M1054.45,447.14a7.48,7.48,0,0,0,3.32,2.6,7,7,0,0,0,8.23-2.27,6.83,6.83,0,0,0,.72-6.26l-13.06,3.19A9.41,9.41,0,0,0,1054.45,447.14Z"/><path class="cls-1" d="M1043,536.62a7.27,7.27,0,0,0-3.8,4.66,9.09,9.09,0,0,0,.85,5,7.28,7.28,0,0,0,3.31,2.59,7,7,0,0,0,8.23-2.26c3.33-4.68-.69-12.58-7.8-10.45a0.46,0.46,0,0,0-.23.34C1043.35,536.6,1043.14,536.54,1043,536.62Z"/><path class="cls-1" d="M1066.37,267.21c3.22,0.16,5.25-2.26,5.34-4.06a4.88,4.88,0,0,0-2.52-4.74,4.75,4.75,0,0,0-4.28.14c-1.48.69-1.7,1.16-1.94,2.06,0,0.11-.47.25-0.51,0.37a7.84,7.84,0,0,0,.34,3.68A5,5,0,0,0,1066.37,267.21Z"/><path class="cls-1" d="M1091.2,330a7,7,0,0,0,6.73,4.76,6.9,6.9,0,0,0,6.53-7.13,7,7,0,0,0-1.48-3.84l-3.2,1.69Z"/><path class="cls-1" d="M1077.68,440.33c-0.16.07-.38,0-0.55,0.09a7.28,7.28,0,0,0-3.79,4.67,9,9,0,0,0,.85,5,7.38,7.38,0,0,0,3.3,2.59,7,7,0,0,0,8.23-2.27c3.33-4.69-.71-12.58-7.8-10.43A0.49,0.49,0,0,0,1077.68,440.33Z"/><path class="cls-1" d="M1061.95,278.29a4.63,4.63,0,0,0-2.83,3.63,6.42,6.42,0,0,0,1.23,3.81,5.42,5.42,0,0,0,1.9,1.11c0.12,0,.24.46,0.37,0.5a7.18,7.18,0,0,0,3.67-.33,5.41,5.41,0,0,0,2.77-3.91,4.84,4.84,0,0,0-3.14-4.93c-0.1,0-.23-0.47-0.36-0.51s-0.91-.14-0.88-0.14A5.27,5.27,0,0,0,1061.95,278.29Z"/><path class="cls-1" d="M205.28,595.65a5.42,5.42,0,0,0-2.28,1.82,11,11,0,0,0-1.24,2.81,6.94,6.94,0,0,0,2.76,6.12,8.85,8.85,0,0,0,2.79,1.24,7.18,7.18,0,0,0,6.13-2.76C216.48,600.59,213,592.52,205.28,595.65Z"/><path class="cls-1" d="M490.63,731.43a9.13,9.13,0,0,0,5.23-.18l-3-14.89a12,12,0,0,0-2.63.79,8.28,8.28,0,0,0-4.54,5.37A8.47,8.47,0,0,0,490.63,731.43Z"/><path class="cls-1" d="M310.57,696.87c-0.71,3.64,2.94,6.1,5.55,5.65A5,5,0,0,0,320,696.7c-0.55-2.48-2.91-3.81-5.79-3.61a1,1,0,0,0-.51.37A4.62,4.62,0,0,0,310.57,696.87Z"/><path class="cls-1" d="M411.36,697.26a6.39,6.39,0,0,0,2.21,1.76l-0.7-10-3,2.4A8.24,8.24,0,0,0,411.36,697.26Z"/><path class="cls-1" d="M413.14,719.63a8.41,8.41,0,0,0,1.85,0l-1-14.13a8.56,8.56,0,0,0-2.87.73,6.57,6.57,0,0,0-4,5.27A7.08,7.08,0,0,0,413.14,719.63Z"/><path class="cls-1" d="M595,746.42a8.51,8.51,0,0,0,5.51-8.11,8.24,8.24,0,0,0-3.69-6.55,7.85,7.85,0,0,0-3.09-1.16l-8,13A8.32,8.32,0,0,0,595,746.42Z"/><path class="cls-1" d="M599.87,725.8a8.55,8.55,0,0,0,2.22-2.1l0.19-.29-1.88-3.62-4.59,7.49a8.28,8.28,0,0,0,3.58-.83C599.49,726.41,599.74,725.89,599.87,725.8Z"/><path class="cls-1" d="M577.36,757.37l-2.6,4.25A7.87,7.87,0,0,0,577.36,757.37Z"/><path class="cls-1" d="M216.13,522.33l6-3a4,4,0,0,0-3-.93,1,1,0,0,0-.51.37A3.4,3.4,0,0,0,216.13,522.33Z"/><path class="cls-1" d="M312.28,681.65a7.49,7.49,0,0,0,3.31,2.6,7,7,0,0,0,8.24-2.26c3.33-4.69-.7-12.6-7.8-10.45a0.44,0.44,0,0,0-.23.33c-0.17.06-.39,0-0.56,0.09a7.3,7.3,0,0,0-3.8,4.66A9.12,9.12,0,0,0,312.28,681.65Z"/><path class="cls-1" d="M225.43,496.39a5.83,5.83,0,0,0-.37-0.53,6.9,6.9,0,0,0-4.28.16c-2.25.69-3.58,2-4,3.54,0,0.1-.46.25-0.51,0.38a6.11,6.11,0,0,0-.09,1.16,6.73,6.73,0,0,0,7.93,7.84,7,7,0,0,0,5.28-7.79C229.05,499.09,227.1,496.82,225.43,496.39Z"/><path class="cls-1" d="M318.75,652.14c-0.17.07-.39,0-0.56,0.1a7.26,7.26,0,0,0-3.8,4.66,9.11,9.11,0,0,0,.86,5,7.25,7.25,0,0,0,3.31,2.58,7,7,0,0,0,8.22-2.25c3.33-4.69-.7-12.59-7.79-10.45A0.43,0.43,0,0,0,318.75,652.14Z"/><path class="cls-1" d="M268.08,583.55a0.44,0.44,0,0,0-.23.34c-0.17.07-.39,0-0.55,0.09a7.26,7.26,0,0,0-3.81,4.66,9.13,9.13,0,0,0,.85,5,7.17,7.17,0,0,0,3.28,2.57l8.83-8.83A6.57,6.57,0,0,0,268.08,583.55Z"/><path class="cls-1" d="M206,623.65c3.52-.86,2-7.16-2-5.11-1.52.78-1.88,1.51-1.48,3.12A2.77,2.77,0,0,0,206,623.65Z"/><path class="cls-1" d="M805.39,713.66L791,706.43a8.2,8.2,0,0,0,.17,5.24c0.92,2.42,4.86,5,7.18,5.1a12.92,12.92,0,0,0,3.91-.66A10.44,10.44,0,0,0,805.39,713.66Z"/><path class="cls-1" d="M874.64,661.28l-14.71-7.21a7.28,7.28,0,0,0-.55,1.26,8.75,8.75,0,0,0-.22,3.78A8.2,8.2,0,0,0,874.64,661.28Z"/><path class="cls-1" d="M863.37,685.63c6.78,0.6,10.87-5.85,8.06-11.69a6.9,6.9,0,0,0-2.42-2.46c-2.26-1.68-4.12-2.5-7.91-.94a7.29,7.29,0,0,0-4.68,6.24,9.64,9.64,0,0,0,0,1.32l0.92,3.47A7.79,7.79,0,0,0,863.37,685.63Z"/><path class="cls-1" d="M881.24,687.77c2.29,0.84,6.28-.07,7.81-1.32a8.05,8.05,0,0,0,2.16-9.27,6,6,0,0,0-1.08-1.26,8.24,8.24,0,0,0-.46-1.06,10,10,0,0,0-4.1-2.17,8.33,8.33,0,0,0-4.74.8,8.23,8.23,0,0,0-4.53,5.36A8.45,8.45,0,0,0,881.24,687.77Z"/><path class="cls-1" d="M669.41,758.47a9.73,9.73,0,0,0,6.69-1.14,12.29,12.29,0,0,0,3.47-4.89,10.23,10.23,0,0,0-1.13-6.69,6.5,6.5,0,0,0-2.34-1.91,6.93,6.93,0,0,0-6.81-1.17l-4,13.18A12.84,12.84,0,0,0,669.41,758.47Z"/><path class="cls-1" d="M907.62,704.53a6.72,6.72,0,0,0-2.86-6.7c-2.08-1.47-3.57-2-7-.53a6.06,6.06,0,0,0-3.76,4.94c-0.41,3.74,1.3,5.91,2.91,7C901.07,712,907.1,709.1,907.62,704.53Z"/><path class="cls-1" d="M676.33,719.47a5.77,5.77,0,0,0,1.14,0l-0.83-1Z"/><path class="cls-1" d="M804.16,729a9.44,9.44,0,0,0-3.56-7.43,14.58,14.58,0,0,0-3.08-1.2c-1.3-.32-4,0.49-4.73.8a7.07,7.07,0,0,0-3.94,3.83c-0.1.26-.32,0.6-0.42,0.92a9.62,9.62,0,0,0,1.28,7.53A8.17,8.17,0,0,0,804.16,729Z"/><path class="cls-1" d="M682.86,729.49a8.13,8.13,0,0,0-7.4-7.18l-4.81,15.87a8.09,8.09,0,0,0,4.94.87A8.38,8.38,0,0,0,682.86,729.49Z"/><path class="cls-1" d="M688.28,739.48a4.07,4.07,0,0,0,1.35,1.21,6,6,0,0,1,.65.46,5.23,5.23,0,0,0,2.08.51c0.12,0,.5.44,0.66,0.46a9.48,9.48,0,0,0,2.47-.14l-9.11-11.36a5.13,5.13,0,0,0-.28,1.19c0,0.12-.43.5-0.45,0.66a10.46,10.46,0,0,0,1.21,5.53A9.63,9.63,0,0,0,688.28,739.48Z"/><path class="cls-1" d="M790.29,755.45c2.28,0.83,6.29-.08,7.8-1.33a8,8,0,0,0,2.16-9.26,6,6,0,0,0-1.07-1.26,9,9,0,0,0-.47-1.07,10.36,10.36,0,0,0-4.09-2.18,8.57,8.57,0,0,0-4.75.8,8.37,8.37,0,0,0-4.34,4.78l-0.18,2.86A8.46,8.46,0,0,0,790.29,755.45Z"/><path class="cls-1" d="M1109.64,393.59c4.66-1,2.9-8.92-2.3-6.79-1.94.8-2.54,1.93-2.22,3.83A3.54,3.54,0,0,0,1109.64,393.59Z"/><path class="cls-1" d="M286.65,574.92a8.57,8.57,0,0,0,.56,1.71l1.71-1.71h-2.27Z"/><path class="cls-1" d="M1068.1,343.25a9,9,0,0,0,.84,5,7.28,7.28,0,0,0,3.31,2.58A6.77,6.77,0,1,0,1076,338l-7.42,3.9A4.7,4.7,0,0,0,1068.1,343.25Z"/><path class="cls-1" d="M270.62,576.52a6.85,6.85,0,0,0,7.56-1.6H268.1A9.47,9.47,0,0,0,270.62,576.52Z"/><path class="cls-1" d="M962.44,610.47l-14.39-3.27a0.87,0.87,0,0,0-.13.09c-0.71,1.9-.06,5.58.58,6.79a9.28,9.28,0,0,0,2.1,2.23c3.17,2.25,8.65,1,10.6-1.8A7.63,7.63,0,0,0,962.44,610.47Z"/><path class="cls-1" d="M957.94,625.67a10.41,10.41,0,0,0-.47-1.07,12.19,12.19,0,0,0-2.89-1.81,9.06,9.06,0,0,0-5.11.31,7.7,7.7,0,0,0-4.19,3.63l5.79,10.34a7.71,7.71,0,0,0,5.7-1.43,7.57,7.57,0,0,0,2.68-6.19A7.75,7.75,0,0,0,957.94,625.67Z"/><path class="cls-1" d="M1066.66,390.54a7,7,0,0,0,8.23-2.25c3.33-4.68-.7-12.59-7.8-10.44a0.44,0.44,0,0,0-.24.33c-0.16.06-.38,0-0.55,0.09a7.25,7.25,0,0,0-3.8,4.66,9.16,9.16,0,0,0,.85,5A7.41,7.41,0,0,0,1066.66,390.54Z"/><path class="cls-1" d="M1035.16,382.42c3.33-4.7-.7-12.59-7.81-10.44a0.45,0.45,0,0,0-.23.32,5.16,5.16,0,0,0-.56.1,7.25,7.25,0,0,0-3.79,4.66,9.08,9.08,0,0,0,.85,5,3.79,3.79,0,0,0,.42.56l5.79,2.51A7.09,7.09,0,0,0,1035.16,382.42Z"/><path class="cls-1" d="M1069.73,357.9a0.44,0.44,0,0,0-.24.32c-0.18.07-.39,0-0.56,0.09a7.25,7.25,0,0,0-3.8,4.67,9,9,0,0,0,.86,5,7.44,7.44,0,0,0,3.3,2.6,7,7,0,0,0,8.23-2.26C1080.84,363.63,1076.82,355.74,1069.73,357.9Z"/><path class="cls-1" d="M971.41,532.92l1.69,2.29a7.55,7.55,0,0,0,1.19-2.82Z"/><path class="cls-1" d="M998.42,569.44l7.9,10.68A7.11,7.11,0,0,0,998.42,569.44Z"/><path class="cls-1" d="M1050,354.93a0.44,0.44,0,0,0-.23.33c-0.17.06-.39,0-0.56,0.09a7.26,7.26,0,0,0-3.8,4.66,9.11,9.11,0,0,0,.85,5,7.4,7.4,0,0,0,3.32,2.59,7,7,0,0,0,8.23-2.25C1061.12,360.67,1057.08,352.78,1050,354.93Z"/><path class="cls-1" d="M1059.91,346.47l-3.25,1.72A7.2,7.2,0,0,0,1059.91,346.47Z"/><path class="cls-1" d="M1097.53,371.24c3.34-4.69-.69-12.59-7.8-10.44a0.45,0.45,0,0,0-.23.33c-0.17.06-.39,0-0.55,0.09a7.28,7.28,0,0,0-3.81,4.66,9,9,0,0,0,.85,5,7.26,7.26,0,0,0,3.31,2.59A7,7,0,0,0,1097.53,371.24Z"/><path class="cls-1" d="M1106.73,413.59a4,4,0,0,0,2.67-4.47,3.84,3.84,0,0,0-4.18-2.73,1,1,0,0,0-.51.37,3.4,3.4,0,0,0-2.5,3.87A3.91,3.91,0,0,0,1106.73,413.59Z"/><path class="cls-1" d="M942.85,606l-10.49-2.39,5.93,10.61a6.67,6.67,0,0,0,3.84-3.95c0-.1.47-0.24,0.51-0.37A8.82,8.82,0,0,0,942.85,606Z"/><path class="cls-1" d="M1094.74,388.65c0.77-3.62-2.14-6.93-4.11-7.33a7.26,7.26,0,0,0-4.18.71,5.76,5.76,0,0,0-2.3,8.42,7.56,7.56,0,0,0,3.26,2.32,8,8,0,0,0,5-.85A7.75,7.75,0,0,0,1094.74,388.65Z"/><path class="cls-1" d="M1092.69,341.08a0.41,0.41,0,0,0-.23.33c-0.17.07-.39,0-0.56,0.09a7.3,7.3,0,0,0-3.8,4.66,9.14,9.14,0,0,0,.85,5,7.33,7.33,0,0,0,3.32,2.59,7,7,0,0,0,8.22-2.26C1103.82,346.83,1099.79,338.93,1092.69,341.08Z"/><path class="cls-1" d="M1069.1,398.18c-0.11,0-.24-0.47-0.38-0.51a6.84,6.84,0,0,0-4.28.15,7.12,7.12,0,0,0-2.42,1.26l11,4.77a5.54,5.54,0,0,0,0-.89C1072.72,400.86,1070.77,398.61,1069.1,398.18Z"/><path class="cls-1" d="M979.42,532.49a7.31,7.31,0,1,0,14.37.14,7.59,7.59,0,0,0-1.64-3.51l-12.66,2.32C979.41,531.8,979.48,532.12,979.42,532.49Z"/><path class="cls-1" d="M1013.34,536.21a7.12,7.12,0,0,0-9.38-6.16,0.45,0.45,0,0,0-.23.32,5.78,5.78,0,0,0-3.93,3.82,7.08,7.08,0,0,0,7.1,9.7A7,7,0,0,0,1013.34,536.21Z"/><path class="cls-1" d="M1004.71,456.38l0.25,0.2c0-.09,0-0.19.06-0.28Z"/><path class="cls-1" d="M1089.07,402.54a5.77,5.77,0,0,0-4.65-.36,4.74,4.74,0,0,0-3.2,3.12,4.51,4.51,0,0,0-.3,2l8.71,3.76C1092,408.71,1091.74,404.24,1089.07,402.54Z"/><path class="cls-1" d="M1001,549.78a0.49,0.49,0,0,0-.23.33,5.76,5.76,0,0,0-3.94,3.83,7.08,7.08,0,0,0,7.09,9.7,7,7,0,0,0,6.45-7.69A7.12,7.12,0,0,0,1001,549.78Z"/><path class="cls-1" d="M1021.87,270.45c-0.18.07-.39,0-0.56,0.09a7.32,7.32,0,0,0-3.8,4.66,9,9,0,0,0,.86,5,7.42,7.42,0,0,0,3.31,2.6,7,7,0,0,0,8.23-2.27c3.33-4.69-.7-12.59-7.8-10.44A0.44,0.44,0,0,0,1021.87,270.45Z"/><path class="cls-1" d="M822.87,827.39c-0.3-.08-0.69-0.38-0.93-0.42a6.8,6.8,0,0,0-2.51.43,6.21,6.21,0,0,0-4.08,3,8.58,8.58,0,0,0-.45,4.09A6.54,6.54,0,0,0,822,839.3a6.42,6.42,0,0,0,5.09-7.17A6.63,6.63,0,0,0,822.87,827.39Z"/><path class="cls-1" d="M820.16,848.52c-0.12,0-.25-0.47-0.39-0.51s-0.91-.14-0.87-0.14a5.25,5.25,0,0,0-2.75.76,4.63,4.63,0,0,0-2.83,3.63,6.4,6.4,0,0,0,1.22,3.81,5.22,5.22,0,0,0,1.91,1.11c0.11,0,.23.47,0.38,0.51a7,7,0,0,0,3.67-.33,5.42,5.42,0,0,0,2.77-3.92A4.84,4.84,0,0,0,820.16,848.52Z"/><path class="cls-1" d="M829.86,814.44a6.63,6.63,0,0,0-4.08-7.06,7.71,7.71,0,0,0-4.22.44,5.67,5.67,0,0,0-3.63,4,9.17,9.17,0,0,0,.76,4.47,6.89,6.89,0,0,0,3.92,2.77A6.47,6.47,0,0,0,829.86,814.44Z"/><path class="cls-1" d="M831.41,789.78a6.18,6.18,0,0,0-2.61-1.84,5.54,5.54,0,0,0-4,.1,3.4,3.4,0,0,0-1.58.84,6,6,0,0,0,.17,9.45,6.43,6.43,0,0,0,8.37-1.43A6.06,6.06,0,0,0,831.41,789.78Z"/><path class="cls-1" d="M837.09,853.67c-3.46,1.59-.71,5.21,1.64,4.6a2.73,2.73,0,0,0,1.77-3.17,8.46,8.46,0,0,0-.79-1.3A2.61,2.61,0,0,0,837.09,853.67Z"/><path class="cls-1" d="M720.94,816.87a1.92,1.92,0,0,0,1.45,3.49,1.88,1.88,0,0,0,1.56-2.57A1.85,1.85,0,0,0,720.94,816.87Z"/><path class="cls-1" d="M723.47,796.36c-3.49,2.11.15,6.4,3.14,4.9,1.36-.67,1.64-2.91,1-4.17S725.06,795.4,723.47,796.36Z"/><path class="cls-1" d="M839.83,834.27a1.92,1.92,0,0,0,1.46,3.48,1.89,1.89,0,0,0,1.57-2.56A1.86,1.86,0,0,0,839.83,834.27Z"/><path class="cls-1" d="M782.36,823.65a4,4,0,0,0-1.93.41L780,830.49a4.34,4.34,0,0,0,3.48-.14c1.62-.79,1.87-3.61,1.15-5.06A3.58,3.58,0,0,0,782.36,823.65Z"/><path class="cls-1" d="M797.31,847.52c-1.91.8-2,2-1.8,2.9,0.64,3.71,6.48,2.5,5.53-1.23A2.6,2.6,0,0,0,797.31,847.52Z"/><path class="cls-1" d="M791.24,808.37c-0.23-5-2.78-6.69-5.88-7.6-1,.34-2.59.25-3.44,0.7l-0.77,11.79c1.59,0.88,3.71,1,6.39.34A9.13,9.13,0,0,0,791.24,808.37Z"/><path class="cls-1" d="M803.76,824.62a7.39,7.39,0,0,0-5.12.29c-3.53,1.52-4.31,5.62-2.52,8.74a9.75,9.75,0,0,0,1.72,1.72,7.45,7.45,0,0,0,6.88,0,8.35,8.35,0,0,0,2.56-3.59A6.72,6.72,0,0,0,803.76,824.62Z"/><path class="cls-1" d="M811.15,809a7.1,7.1,0,0,0-2.06-3.68,3.62,3.62,0,0,0-2-1.39c-0.28-.11-0.79-0.64-1-0.69a9.77,9.77,0,0,0-4.23.43,5.21,5.21,0,0,0-2.6,1.59,3.67,3.67,0,0,0-1.39,2,6.61,6.61,0,0,0-.73,4.15A7.07,7.07,0,0,0,811.15,809Z"/><path class="cls-1" d="M908.36,781.59a1.16,1.16,0,0,0-.51.37,3.42,3.42,0,0,0-2.51,3.87,3.91,3.91,0,0,0,4.52,3,4,4,0,0,0,2.69-4.46A3.86,3.86,0,0,0,908.36,781.59Z"/><path class="cls-1" d="M892.66,756.71a7.77,7.77,0,0,0-2.73.76,5.38,5.38,0,0,0-3.39,3.72,8.3,8.3,0,0,0,.35,3.68A5.83,5.83,0,0,0,898,763,6,6,0,0,0,892.66,756.71Z"/><path class="cls-1" d="M902.3,744.17a7.29,7.29,0,0,0-9.41-8.15,0.47,0.47,0,0,0-.25.33c-2.14.79-3.32,2-3.71,3.5,0,0.1-.46.25-0.5,0.37-1.22,3.28.75,7.16,2.58,8.45a7.64,7.64,0,0,0,7.82.4A9.21,9.21,0,0,0,902.3,744.17Z"/><path class="cls-1" d="M927.22,784.43c-5,1.94-2.28,9,2.48,7.89C935,791.13,933,782.16,927.22,784.43Z"/><path class="cls-1" d="M912.81,758.75c-1.18.38-3.22,0.17-3.86,0.94-2.32.88-3,2.94-3.75,4.94q0.83,9.19,9.8,6.94a9.11,9.11,0,0,0,3.7-5.22C918.46,761.39,915.92,759.67,912.81,758.75Z"/><path class="cls-1" d="M835.38,748.95a6.24,6.24,0,0,0-4.61-.08,4.74,4.74,0,0,0-3.2,3.12c-1.06,2.59.57,5.87,2,6.84a7,7,0,0,0,4.71.63C839.7,758.11,839.27,750.5,835.38,748.95Z"/><path class="cls-1" d="M831.45,768a7.13,7.13,0,0,0-4.19.71,5.75,5.75,0,0,0-2.3,8.43,7.64,7.64,0,0,0,3.26,2.31,8.07,8.07,0,0,0,5-.85,8,8,0,0,0,2.32-3.27C836.32,771.69,833.42,768.38,831.45,768Z"/><path class="cls-1" d="M833.75,727.92c-0.15.06-.32,0.08-0.48,0.14a6.44,6.44,0,0,0-3.29,2.57,7,7,0,0,0-.64,4.7,6.51,6.51,0,0,0,12.74-2.73,4.52,4.52,0,0,0-.19-0.58Z"/><path class="cls-1" d="M851.67,736.94l-2.2-1.1a9.21,9.21,0,0,0,.76,4.26,6.9,6.9,0,0,0,3.92,2.79,6.52,6.52,0,0,0,5.63-1.87Z"/><path class="cls-1" d="M870.79,756.41c-1.93.79-2.55,1.91-2.22,3.82a3.55,3.55,0,0,0,4.53,3C877.76,762.14,876,754.29,870.79,756.41Z"/><path class="cls-1" d="M873.19,733.34a4.26,4.26,0,0,0-1.85.88h0l3.38,12.71a8.66,8.66,0,0,0,3.83-.74,7.18,7.18,0,0,0,2.18-2.37c1.21-1.69,1.8-3,1.44-5.12A6.9,6.9,0,0,0,873.19,733.34Z"/><path class="cls-1" d="M628.87,778.27c-0.11,0-.25-0.46-0.39-0.51a7,7,0,0,0-4.27.15c-2.25.7-3.59,2-4,3.55,0,0.11-.46.24-0.52,0.37a8.26,8.26,0,0,0-.08,1.18,6.73,6.73,0,0,0,7.93,7.83,7,7,0,0,0,5.28-7.79C632.48,781,630.53,778.7,628.87,778.27Z"/><path class="cls-1" d="M574.79,831.64a6.09,6.09,0,0,0-3.75,4.94c-0.42,3.74,1.31,5.91,2.91,7,4.13,2.74,10.18-.12,10.68-4.68a6.75,6.75,0,0,0-2.85-6.7C579.69,830.7,578.19,830.15,574.79,831.64Z"/><path class="cls-1" d="M568,894.51c-1.92.78-2,2-1.81,2.87,0.64,3.72,6.49,2.51,5.54-1.23A2.58,2.58,0,0,0,568,894.51Z"/><path class="cls-1" d="M573.95,872.25c-0.12,0-.24-0.47-0.37-0.51a6.22,6.22,0,0,0-2.84.21c-3.13.77-3.46,2.09-3.77,3.22,0,0.11-.47.24-0.5,0.37a14.68,14.68,0,0,0-.18,2.32,6,6,0,0,0,6.85,4.87,11.07,11.07,0,0,0,2.37-1.28,6.57,6.57,0,0,0,1.34-2.23,5.85,5.85,0,0,0,.52-0.37c0.5-1.8-.31-4.6-1.18-5.25A6.63,6.63,0,0,0,573.95,872.25Z"/><path class="cls-1" d="M572.44,851.55a6.5,6.5,0,0,0-3.3,2.57,7,7,0,0,0-.63,4.7,6.51,6.51,0,1,0,12.73-2.74C580.36,851.82,576.1,850.15,572.44,851.55Z"/><path class="cls-1" d="M593,857.83c-3.53,1.92-.46,6.81,3,5.51a3.35,3.35,0,0,0,1.55-4.28C596.89,857.35,594.78,856.87,593,857.83Z"/><path class="cls-1" d="M595.64,836.14a4.48,4.48,0,0,0-3.14,5.12c0.91,7.09,10.93,5.11,10.14-1.15C602.16,836.4,598.66,835,595.64,836.14Z"/><path class="cls-1" d="M557.21,849.83a5.59,5.59,0,0,0-3.71.06c-1.71.6-2.43,1.31-2.74,2.47,0,0.1-.45.27-0.5,0.38a7.27,7.27,0,0,0,.48,4.51,3.36,3.36,0,0,0,1,.7,8.83,8.83,0,0,0,.43.8,3.52,3.52,0,0,0,.6.17,6.44,6.44,0,0,0,3.26.59C561.46,858.59,560.88,851.39,557.21,849.83Z"/><path class="cls-1" d="M485.72,756.65a0.4,0.4,0,0,0-.22.33c-2.69.82-3.51,1.59-4.36,3a9.45,9.45,0,0,0-.82,5.3,7.36,7.36,0,0,0,14.45-2.75A7.53,7.53,0,0,0,485.72,756.65Z"/><path class="cls-1" d="M598,814.51a0.43,0.43,0,0,0-.23.32c-3.32,1.42-4.79,4.51-3.47,8.34a6.71,6.71,0,0,0,6.15,4.13,6.61,6.61,0,0,0,6.21-9.1C605.65,815.26,602,813.2,598,814.51Z"/><path class="cls-1" d="M506.47,783.43c-1-.64-2.21-0.72-3.82.19a3.13,3.13,0,0,0-1.66,2c-0.5,4.07,3.14,5.12,5.54,3.93a2.21,2.21,0,0,0,1-1Z"/><path class="cls-1" d="M703,788.93a0.42,0.42,0,0,0-.23.32c-2.14.79-3.32,2-3.71,3.49,0,0.12-.46.25-0.51,0.38-1.22,3.29.74,7.15,2.58,8.46a7.68,7.68,0,0,0,7.82.39,9.2,9.2,0,0,0,3.47-4.89A7.31,7.31,0,0,0,703,788.93Z"/><path class="cls-1" d="M548.09,892.43a1.92,1.92,0,0,0,1.46,3.48,1.89,1.89,0,0,0,1.57-2.57A1.86,1.86,0,0,0,548.09,892.43Z"/><path class="cls-1" d="M550.72,870.73c-2.07.83-2.81,2-2.45,4.15,0.94,5.54,8.92,3.53,7.77-1.61A3.87,3.87,0,0,0,550.72,870.73Z"/><path class="cls-1" d="M689.4,813.61c-0.24-5-2.79-6.68-5.9-7.6-1.17.38-3.21,0.17-3.85,0.94-2.32.89-3,2.94-3.75,4.95q0.84,9.2,9.78,6.94A9.15,9.15,0,0,0,689.4,813.61Z"/><path class="cls-1" d="M695.18,852.81c-1.52.77-1.88,1.5-1.48,3.12a2.76,2.76,0,0,0,3.49,2C700.72,857,699.24,850.75,695.18,852.81Z"/><path class="cls-1" d="M699.89,809.54a6.47,6.47,0,0,0-3.3,2.57,6.92,6.92,0,0,0-.63,4.69,6.51,6.51,0,0,0,12.73-2.73C707.81,809.8,703.55,808.14,699.89,809.54Z"/><path class="cls-1" d="M678.92,828a1,1,0,0,0-.52.38c-1.7.54-2.25,1.19-2.49,2.14,0,0.1-.46.26-0.51,0.37a5.68,5.68,0,0,0-.19,2.33,4.41,4.41,0,0,0,2.85,3.25,4.49,4.49,0,0,0,6-5.05,5.09,5.09,0,0,0-1.18-1.8A4.59,4.59,0,0,0,678.92,828Z"/><path class="cls-1" d="M701.72,830.46a5.51,5.51,0,0,0-4.33-.13,4.5,4.5,0,0,0-3,2.81c-0.73,1.92-.89,3.51.36,5.39a3.53,3.53,0,0,0,2,1.67c0.1,0,.24.46,0.37,0.5a6.87,6.87,0,0,0,3.49.26,5.69,5.69,0,0,0,3.43-8.61A4.26,4.26,0,0,0,701.72,830.46Z"/><path class="cls-1" d="M619.23,821.23c-1.92.79-2,2-1.81,2.88,0.63,3.72,6.47,2.5,5.53-1.22A2.59,2.59,0,0,0,619.23,821.23Z"/><path class="cls-1" d="M621,799.69a4.31,4.31,0,0,0-2.73,4.19,5.54,5.54,0,0,0,2.15,4.24,5.31,5.31,0,0,0,6.93-1.48,5.22,5.22,0,0,0,.69-2.69C627.89,800,624.52,798.12,621,799.69Z"/><path class="cls-1" d="M608.88,795.73a11.76,11.76,0,0,0-2.89-1.81,8.86,8.86,0,0,0-5.12.3,7.65,7.65,0,0,0-4.45,4.2,8,8,0,0,0,1.23,7.24c2.29,2.92,7.39,3.56,10.52,1.09a7.53,7.53,0,0,0,2.67-6.19,7.62,7.62,0,0,0-1.5-3.76A9.11,9.11,0,0,0,608.88,795.73Z"/><path class="cls-1" d="M661.28,806.92a2.49,2.49,0,0,0-1.68,2c-1.1,4.58,4.68,5.16,6.23,3,1.26-1.76.12-4.34-.85-5A3.69,3.69,0,0,0,661.28,806.92Z"/><path class="cls-1" d="M930.92,764a1.12,1.12,0,0,0-.52.37c-1.71.54-2.24,1.19-2.51,2.15,0,0.1-.45.26-0.51,0.38a5.8,5.8,0,0,0-.16,2.32,4.34,4.34,0,0,0,2.83,3.25,4.49,4.49,0,0,0,6-5,5.23,5.23,0,0,0-1.17-1.8A4.6,4.6,0,0,0,930.92,764Z"/><path class="cls-1" d="M671.68,788.8a6.37,6.37,0,0,0-7.74-5,0.4,0.4,0,0,0-.23.32c-2.14.7-3.28,1.85-3.71,3.51,0,0.11-.47.23-0.51,0.36a9.62,9.62,0,0,0-.08,2.89A6.22,6.22,0,0,0,671.68,788.8Z"/><path class="cls-1" d="M976.34,711a8.12,8.12,0,0,0-1.67,3,5.14,5.14,0,0,0,2.29,5.07,5.59,5.59,0,0,0,7.26-1.23,4.77,4.77,0,0,0,.77-2.67Z"/><path class="cls-1" d="M1117.67,445.89a0.42,0.42,0,0,0-.24.32c-0.17.06-.39,0-0.55,0.09a7.3,7.3,0,0,0-3.8,4.67,9,9,0,0,0,.86,5,7.25,7.25,0,0,0,3.3,2.59,7,7,0,0,0,8.23-2.26C1128.79,451.62,1124.77,443.74,1117.67,445.89Z"/><path class="cls-1" d="M1135.74,471.23c-1.91.53-2.41,1.09-2.82,1.92a9.52,9.52,0,0,0-.37,1.21c-0.67,4.23,4.93,6.51,7.44,3.33a5.23,5.23,0,0,0,.83-3.59,6.76,6.76,0,0,0-1.21-2.09A4.55,4.55,0,0,0,1135.74,471.23Z"/><path class="cls-1" d="M1144,555.34c-2.73,1.36-.76,4.66,1.55,4a2,2,0,0,0,1.39-2A1.94,1.94,0,0,0,1144,555.34Z"/><path class="cls-1" d="M1145.91,539.52c0.86,0.86,3.41.63,4.22-.43,0.57-.82.3-2.72-0.33-3.67C1147.36,533.54,1143.55,536.51,1145.91,539.52Z"/><path class="cls-1" d="M1137.4,448.84a0.45,0.45,0,0,0-.23.33c-0.18.06-.39,0-0.56,0.08a7.33,7.33,0,0,0-3.8,4.68,9.07,9.07,0,0,0,.85,5,7.32,7.32,0,0,0,3.31,2.6,7,7,0,0,0,8.23-2.25C1148.52,454.6,1144.49,446.7,1137.4,448.84Z"/><path class="cls-1" d="M1148.06,437.28c0.5-1.79-.3-4.6-1.17-5.25a6.54,6.54,0,0,0-2.24-1.34c-0.11,0-.24-0.48-0.37-0.52a6,6,0,0,0-2.84.2c-3.13.77-3.47,2.09-3.76,3.23a5.22,5.22,0,0,0-.51.37,15.81,15.81,0,0,0-.18,2.32,6,6,0,0,0,6.85,4.86,11.42,11.42,0,0,0,2.37-1.27,6.83,6.83,0,0,0,1.34-2.23A5.09,5.09,0,0,0,1148.06,437.28Z"/><path class="cls-1" d="M1109,524.84c-1.19.39-3.21,0.17-3.86,0.94-2.32.89-3,3-3.76,4.95q0.84,9.18,9.79,6.95a9.14,9.14,0,0,0,3.71-5.23C1114.62,527.48,1112.08,525.76,1109,524.84Z"/><path class="cls-1" d="M1086.12,522.12a0.51,0.51,0,0,0-.23.34c-0.17.07-.39,0-0.55,0.09a7.25,7.25,0,0,0-3.8,4.66,9.24,9.24,0,0,0,.85,5,7.41,7.41,0,0,0,3.31,2.59,7,7,0,0,0,8.23-2.25C1097.26,527.87,1093.23,520,1086.12,522.12Z"/><path class="cls-1" d="M1103.18,546.49c-2.66,1-3.71,2.92-3.38,5.46a5.29,5.29,0,0,0,6.25,4.67,5.53,5.53,0,0,0,4.4-6.2A5.32,5.32,0,0,0,1103.18,546.49Z"/><path class="cls-1" d="M1125.57,549.85a4.9,4.9,0,0,0-2.19.67,3.67,3.67,0,0,0-2.5,3.87,4.25,4.25,0,0,0,4.43,4.13,4.33,4.33,0,0,0,3.88-5.83A4.71,4.71,0,0,0,1125.57,549.85Z"/><path class="cls-1" d="M1130.15,529.57a5.48,5.48,0,0,0-4.33-.13,4.46,4.46,0,0,0-3,2.79c-0.73,1.93-.89,3.51.35,5.4a3.43,3.43,0,0,0,2,1.67c0.11,0,.25.47,0.38,0.51a6.79,6.79,0,0,0,3.49.26,5.7,5.7,0,0,0,3.42-8.62A4.17,4.17,0,0,0,1130.15,529.57Z"/><path class="cls-1" d="M1155.53,476.19c-2.66,1.33-.8,4.66,1.54,4a2,2,0,0,0,1.39-2A1.94,1.94,0,0,0,1155.53,476.19Z"/><path class="cls-1" d="M1197.67,462.43c-1,.35-0.58,1.71-0.36,2.94,1.55,1.44,5.11.08,3.52-2.9C1200.33,461.89,1198.43,461.49,1197.67,462.43Z"/><path class="cls-1" d="M1161.32,452.82a5.63,5.63,0,0,0-4,.11,3.35,3.35,0,0,0-1.58.84,6.19,6.19,0,0,0-1.85,2.62c-1.12,2.74.56,5.78,2,6.83a6.45,6.45,0,0,0,8.37-1.41,6.07,6.07,0,0,0-.34-7.13A6.27,6.27,0,0,0,1161.32,452.82Z"/><path class="cls-1" d="M1178.53,317.61c-3,1.69-.37,5.13,1.92,4.55C1183.74,321.32,1182,315.66,1178.53,317.61Z"/><path class="cls-1" d="M1197.72,339.31a3.69,3.69,0,0,0-1.68.28,5,5,0,0,0-1.12.19,16,16,0,0,0-1.15,1.64c-0.63,2.33,2.44,5.13,4.91,3.48-0.07,0,1.09-1.45,1.14-1.64a4.74,4.74,0,0,0-.47-2.79A7.53,7.53,0,0,0,1197.72,339.31Z"/><path class="cls-1" d="M1109.13,650.79c-1.53.78-1.87,1.51-1.47,3.12a2.77,2.77,0,0,0,3.49,2C1114.66,655,1113.19,648.75,1109.13,650.79Z"/><path class="cls-1" d="M1198.63,321.08a1.91,1.91,0,0,0,1.46,3.47A1.95,1.95,0,1,0,1198.63,321.08Z"/><path class="cls-1" d="M1178.48,334.26a5.67,5.67,0,0,0-4.23.43,4.57,4.57,0,0,0-2.64,3,5.54,5.54,0,0,0,3.46,6.87,7.76,7.76,0,0,0,4.28-.15c0.07,0,.36-0.57.46-0.66,0.35-.25.78-0.19,1.08-0.46a5.19,5.19,0,0,0,1.06-2.2,6.51,6.51,0,0,0-1.22-5.54A4.49,4.49,0,0,0,1178.48,334.26Z"/><path class="cls-1" d="M1157.1,352a5.78,5.78,0,0,0-4.65-.36,4.74,4.74,0,0,0-3.2,3.13,5.63,5.63,0,0,0,1.93,6.28,6.71,6.71,0,0,0,3.86.77C1160.09,360.91,1160.51,354.13,1157.1,352Z"/><path class="cls-1" d="M933.42,746.64c-3,1.69-.36,5.14,1.91,4.55C938.63,750.34,936.88,744.7,933.42,746.64Z"/><path class="cls-1" d="M1160.75,434.26a4.06,4.06,0,0,0-2.92,3.09,5.61,5.61,0,0,0,0,1.72c1,6.05,10.18,4.18,8.88-1.79a7,7,0,0,0-1.6-2.6A4.52,4.52,0,0,0,1160.75,434.26Z"/><path class="cls-1" d="M1181,438.3c-1.7.63-2.72,1.76-2.22,3.82,1,4.21,7.65,2.7,6.59-1.7A3.34,3.34,0,0,0,1181,438.3Z"/><path class="cls-1" d="M1177.56,457.23a4.08,4.08,0,0,0-2.92,3.07,5.68,5.68,0,0,0,0,1.72c1,6.07,10.17,4.19,8.88-1.79a7,7,0,0,0-1.59-2.59A4.53,4.53,0,0,0,1177.56,457.23Z"/><path class="cls-1" d="M1172.83,356.74c-1.53.78-1.88,1.51-1.48,3.13a2.77,2.77,0,0,0,3.5,2C1178.36,361,1176.89,354.68,1172.83,356.74Z"/><path class="cls-1" d="M1015.45,737.86a2.69,2.69,0,0,0-1.71,3.47c0.89,3.76,7.06,2.67,6-1.61C1019.28,737.65,1017.46,736.93,1015.45,737.86Z"/><path class="cls-1" d="M1008.85,695.66c-1-2.94-4.68-5-8.66-3.69a0.53,0.53,0,0,0-.24.32c-3.31,1.4-4.78,4.51-3.46,8.33a6.7,6.7,0,0,0,6.15,4.12A6.61,6.61,0,0,0,1008.85,695.66Z"/><path class="cls-1" d="M1106.48,670.75c-3.44,1.58-.71,5.21,1.66,4.6a2.71,2.71,0,0,0,1.75-3.17,6.45,6.45,0,0,0-.79-1.3A2.61,2.61,0,0,0,1106.48,670.75Z"/><path class="cls-1" d="M1002.48,712.24a7.4,7.4,0,0,0-5.11.3,5.33,5.33,0,0,0-2.67,2.6l3.75,6.72-4.12-2a6.46,6.46,0,0,0,.51,1.45,10.16,10.16,0,0,0,1.73,1.72,7.44,7.44,0,0,0,6.87,0,8.11,8.11,0,0,0,2.54-3.58A6.7,6.7,0,0,0,1002.48,712.24Z"/><path class="cls-1" d="M1025.55,697.71a4.52,4.52,0,0,0-3.87-.77c-1.91.52-2.41,1.08-2.82,1.92-0.06.1-.35,1-0.38,1.21-0.66,4.23,5,6.51,7.46,3.33a5.28,5.28,0,0,0,.82-3.59A7.09,7.09,0,0,0,1025.55,697.71Z"/><path class="cls-1" d="M482.07,777.37a0.49,0.49,0,0,0-.23.32c-3.31,1.41-4.79,4.51-3.46,8.34a6.7,6.7,0,0,0,6.15,4.12,6.62,6.62,0,0,0,6.21-9.09C489.71,778.13,486,776.06,482.07,777.37Z"/><path class="cls-1" d="M1035.5,741.07c-1.92.8-1.94,2-1.8,2.89,0.63,3.72,6.48,2.5,5.53-1.22A2.6,2.6,0,0,0,1035.5,741.07Z"/><path class="cls-1" d="M918.3,682.64a5,5,0,0,0-1.1,2.19c-0.75,4.23,2.41,7.39,4.75,7.8a6.83,6.83,0,0,0,7.71-4.44Z"/><path class="cls-1" d="M941.43,706a3.5,3.5,0,0,0-1.67.29,5.51,5.51,0,0,0-1.12.19,14.74,14.74,0,0,0-1.15,1.64c-0.64,2.32,2.43,5.13,4.88,3.47,0,0,1.11-1.45,1.17-1.64a4.85,4.85,0,0,0-.47-2.78A8,8,0,0,0,941.43,706Z"/><path class="cls-1" d="M958.75,708.19c-5,1.94-2.27,8.95,2.48,7.9C966.57,714.88,964.53,705.92,958.75,708.19Z"/><path class="cls-1" d="M937.48,692a6.26,6.26,0,0,0,3.93,3.61,7.36,7.36,0,0,0,3.59.07Z"/><path class="cls-1" d="M1017.93,715.35c-2.18.71-2.73,1.27-3.34,2.29a6.47,6.47,0,0,0,1.65,8,6.39,6.39,0,0,0,8.37-1.42c1.49-2.08,1.39-6.73-1.75-8.59A5.84,5.84,0,0,0,1017.93,715.35Z"/><path class="cls-1" d="M1068,641.72a5.19,5.19,0,0,0-2.28,1.82,11.28,11.28,0,0,0-1.25,2.79,7,7,0,0,0,2.77,6.14,9.23,9.23,0,0,0,2.79,1.23,7.14,7.14,0,0,0,6.12-2.75C1079.2,646.65,1075.69,638.58,1068,641.72Z"/><path class="cls-1" d="M1078.44,623.86a6.22,6.22,0,0,0-2.6-1.86,5.69,5.69,0,0,0-4,.11,3.33,3.33,0,0,0-1.58.84,6,6,0,0,0,.17,9.44,6.43,6.43,0,0,0,8.37-1.42A6.07,6.07,0,0,0,1078.44,623.86Z"/><path class="cls-1" d="M1088.67,667.19a3.25,3.25,0,0,0-1.67.28,5,5,0,0,0-1.12.19,15.71,15.71,0,0,0-1.15,1.63c-0.64,2.32,2.43,5.12,4.89,3.47-0.05,0,1.11-1.45,1.16-1.63a4.69,4.69,0,0,0-.47-2.79A7.59,7.59,0,0,0,1088.67,667.19Z"/><path class="cls-1" d="M1092.31,627.83a2.66,2.66,0,0,0-1.7,3.44c0.89,3.79,7.06,2.69,6-1.59C1096.15,627.6,1094.33,626.88,1092.31,627.83Z"/><path class="cls-1" d="M1093.25,645.17a6.27,6.27,0,0,0-4.6-.08,4.8,4.8,0,0,0-3.21,3.13c-1,2.58.58,5.88,2,6.83a7,7,0,0,0,4.71.63C1097.58,654.34,1097.15,646.74,1093.25,645.17Z"/><path class="cls-1" d="M1028.18,625.4a0.79,0.79,0,0,0,0,.11,7.44,7.44,0,0,0,3.3,2.59,6.83,6.83,0,0,0,6.21-.53Z"/><path class="cls-1" d="M1041.68,721.66a6.51,6.51,0,0,0-.42-0.79c-0.11-.07-0.43.14-0.57,0.09a1.67,1.67,0,0,0-3.11.25c-1.76,1.11-1.8,2.84-1,4.46,0,0.05.54,0.12,0.59,0.19a5.66,5.66,0,0,0,.42.79,5.72,5.72,0,0,0,.57-0.09,4.24,4.24,0,0,0,.37.5,4.09,4.09,0,0,0,3.77-1.5c0.07-.12-0.14-0.42-0.09-0.56a5.87,5.87,0,0,0,.5-0.37,7.35,7.35,0,0,0-.47-2.79S1041.74,721.72,1041.68,721.66Z"/><path class="cls-1" d="M1033.55,636.65a5.51,5.51,0,0,0-4.33-.13,4.47,4.47,0,0,0-3,2.81c-0.74,1.91-.9,3.51.35,5.39a3.45,3.45,0,0,0,2,1.67c0.1,0,.24.47,0.37,0.52a7,7,0,0,0,3.48.27,5.69,5.69,0,0,0,3.42-8.61A4.21,4.21,0,0,0,1033.55,636.65Z"/><path class="cls-1" d="M1051.63,618.08a0.42,0.42,0,0,0-.22.33c-0.17.07-.39,0-0.56,0.1a7.36,7.36,0,0,0-3.81,4.66,9.12,9.12,0,0,0,.86,5,7.53,7.53,0,0,0,3.32,2.59,7,7,0,0,0,8.21-2.27C1062.76,623.83,1058.73,615.93,1051.63,618.08Z"/><path class="cls-1" d="M1068.75,664.83c-0.63.29-2.08,0-2.18,0.65-1,.52-1,1.74-0.59,3.27,1.59,1.79,5.72.36,4.08-3A2.62,2.62,0,0,1,1068.75,664.83Z"/><path class="cls-1" d="M1053.14,638.78a7.56,7.56,0,0,0-4.23.44,5.61,5.61,0,0,0-3.61,4.05,8.77,8.77,0,0,0,.76,4.46,6.82,6.82,0,0,0,3.9,2.79,6.5,6.5,0,0,0,7.25-4.68A6.62,6.62,0,0,0,1053.14,638.78Z"/><path class="cls-1" d="M965.9,145.37a3.34,3.34,0,0,0-4.36-2.12c-1.71.62-2.72,1.76-2.23,3.81C960.32,151.27,967,149.77,965.9,145.37Z"/><path class="cls-1" d="M821.14,171.68a7.6,7.6,0,0,0,4.17-5.88c0.11-5.73-5.06-8.54-9.73-6.67a5.93,5.93,0,0,0-3.9,4.11A7.11,7.11,0,0,0,821.14,171.68Z"/><path class="cls-1" d="M800.16,166.88A4.69,4.69,0,0,0,802.8,165a5.25,5.25,0,0,0,.7-2.7c-0.15-3.67-3-5.5-6.25-4.51Z"/><path class="cls-1" d="M823.53,129.95a4.35,4.35,0,0,0,4.4-6.2,4.76,4.76,0,0,0-2.33-1.91,4.16,4.16,0,0,0-3.35.57,3.65,3.65,0,0,0-2.12,2.66A4.52,4.52,0,0,0,823.53,129.95Z"/><path class="cls-1" d="M817.88,150.71a7.49,7.49,0,0,0,6.88,0,8.29,8.29,0,0,0,2.54-3.59,6.73,6.73,0,0,0-3.51-7.15,7.42,7.42,0,0,0-5.12.3c-3.55,1.52-4.31,5.62-2.52,8.74A10.13,10.13,0,0,0,817.88,150.71Z"/><path class="cls-1" d="M808.44,183a7.64,7.64,0,0,0,5,8.91,7.13,7.13,0,0,0,4.19-.24l4.41-3.88a4.8,4.8,0,0,0,.32-0.83,7.57,7.57,0,0,0-5-8.92,8.84,8.84,0,0,0-4.79.52A6.83,6.83,0,0,0,808.44,183Z"/><path class="cls-1" d="M803.62,141.07a2.56,2.56,0,0,1-1.31-.93c-0.64.29-2.08,0-2.18,0.66-1,.51-1,1.73-0.61,3.26C801.12,145.85,805.24,144.43,803.62,141.07Z"/><path class="cls-1" d="M831.7,166.16a6.94,6.94,0,0,0,5,8.67l8.07-7.1a6.22,6.22,0,0,0,0-.64,6.4,6.4,0,0,0-4-4.78,6.15,6.15,0,0,0-.37-0.51,7,7,0,0,0-4,.11A6.17,6.17,0,0,0,831.7,166.16Z"/><path class="cls-1" d="M839.32,153.66a7.65,7.65,0,0,0,4.28-.15c0.08,0,.38-0.57.48-0.65a8,8,0,0,0,1.06-.47,4.91,4.91,0,0,0,1.06-2.19,6.42,6.42,0,0,0-1.22-5.52,4.44,4.44,0,0,0-2.23-1.35,5.62,5.62,0,0,0-4.22.43,4.62,4.62,0,0,0-2.65,3A5.54,5.54,0,0,0,839.32,153.66Z"/><path class="cls-1" d="M914.6,206.6a6.86,6.86,0,1,0-2.55-13.34,0.48,0.48,0,0,0-.24.32,6.2,6.2,0,0,0-1.85.89c-1.2,1.62-2.65,3.35-2.49,5.6A7.09,7.09,0,0,0,914.6,206.6Z"/><path class="cls-1" d="M916.82,185.85a6.09,6.09,0,0,0,6.26-5.37,6,6,0,0,0-5.37-6.26A8,8,0,0,0,915,175a5.4,5.4,0,0,0-3.38,3.73,8.33,8.33,0,0,0,.34,3.68A6.17,6.17,0,0,0,916.82,185.85Z"/><path class="cls-1" d="M847.38,126.76a3.81,3.81,0,0,0-2-1.39,4.08,4.08,0,0,0-5.3,2.62C839.44,134.93,850.36,133.14,847.38,126.76Z"/><path class="cls-1" d="M898.32,178.89c1.1-.43,1.88-1.58,1-3.27a2.47,2.47,0,0,0-1.56-.58Z"/><path class="cls-1" d="M904.69,217.47a7.91,7.91,0,0,0-.21,1.9l0.36,2.31a7.24,7.24,0,0,0,9.33,4.22,7.69,7.69,0,0,0,4.17-5.88c0.1-5.73-5.08-8.53-9.74-6.67A5.88,5.88,0,0,0,904.69,217.47Z"/><path class="cls-1" d="M686.35,107.9a2.7,2.7,0,0,0,1.75-3.16,7.23,7.23,0,0,0-.8-1.31,2.56,2.56,0,0,0-2.6-.13C681.24,104.89,684,108.5,686.35,107.9Z"/><path class="cls-1" d="M686.26,125.53a4,4,0,0,0-1-2.82Z"/><path class="cls-1" d="M614.32,160.3a7.81,7.81,0,0,0,1.68.78l3.64-10a6.12,6.12,0,0,0-3.15-.08,5.62,5.62,0,0,0-2.42,1C611.74,153.92,612,158.45,614.32,160.3Z"/><path class="cls-1" d="M605.25,111.92c-0.51-.57-2.4-1-3.16,0-1,.35-0.58,1.71-0.36,2.92C603.28,116.26,606.82,114.88,605.25,111.92Z"/><path class="cls-1" d="M693.49,144.85c0,0.11-.47.25-0.52,0.38s0,0,0,0l2.92,8.58a7.69,7.69,0,0,0,7.49.24,9.23,9.23,0,0,0,3.47-4.9,7.31,7.31,0,0,0-9.42-8.16,0.41,0.41,0,0,0-.22.33C695.06,142.15,693.87,143.39,693.49,144.85Z"/><path class="cls-1" d="M735.73,156.58l5.5-7a4.92,4.92,0,0,0-3.87.16C734.11,151.1,734.29,154.5,735.73,156.58Z"/><path class="cls-1" d="M726.23,114.62a4,4,0,0,0,2.68-4.47,3.87,3.87,0,0,0-4.2-2.74,1,1,0,0,0-.5.38,3.41,3.41,0,0,0-2.51,3.87A3.91,3.91,0,0,0,726.23,114.62Z"/><path class="cls-1" d="M702.71,135a6.86,6.86,0,1,0-2.55-13.34,0.48,0.48,0,0,0-.24.32,6.26,6.26,0,0,0-1.86.89c-1.2,1.62-2.65,3.35-2.49,5.59A7.08,7.08,0,0,0,702.71,135Z"/><path class="cls-1" d="M716.83,132a5.69,5.69,0,1,0,10.55-3.8c-0.87-1.65-3.43-3-6.19-2.67a1,1,0,0,0-.5.37A5.32,5.32,0,0,0,716.83,132Z"/><path class="cls-1" d="M711.59,87.54a3.36,3.36,0,0,0-4.37-2.13c-1.7.62-2.71,1.77-2.22,3.83C706,93.44,712.64,91.94,711.59,87.54Z"/><path class="cls-1" d="M704.09,114.35a6.46,6.46,0,0,0,7.24-4.67,6.61,6.61,0,0,0-4.07-7.06,7.87,7.87,0,0,0-4.24.43,5.73,5.73,0,0,0-3.62,4.06,9,9,0,0,0,.76,4.46A6.8,6.8,0,0,0,704.09,114.35Z"/><path class="cls-1" d="M927.47,201.26a9.15,9.15,0,0,0,.85,5,7.47,7.47,0,0,0,3.32,2.58,7,7,0,0,0,8.23-2.26c3.32-4.68-.71-12.58-7.8-10.43a0.48,0.48,0,0,0-.23.32c-0.18.07-.4,0-0.56,0.1A7.28,7.28,0,0,0,927.47,201.26Z"/><path class="cls-1" d="M1123.9,309.59a3.29,3.29,0,0,0-4.75-2,6.15,6.15,0,0,0-1.17.63Z"/><path class="cls-1" d="M1103.49,304.94a6.3,6.3,0,0,0-1.6-1,3.65,3.65,0,0,0-2.2.14Z"/><path class="cls-1" d="M1141.1,352.37a6.71,6.71,0,0,0-8.91-5.08,6.19,6.19,0,0,0-4.17,4.14c-1.08,4,1.32,7.65,4.31,8.46A6.84,6.84,0,0,0,1141.1,352.37Z"/><path class="cls-1" d="M1065.92,240.88c0,0.09-.47.26-0.5,0.37a5.77,5.77,0,0,0-.18,2.33,4.31,4.31,0,0,0,2.84,3.24,4.47,4.47,0,0,0,6-5A5.09,5.09,0,0,0,1073,240a4.64,4.64,0,0,0-4-1.62,0.88,0.88,0,0,0-.51.37C1066.73,239.26,1066.17,239.92,1065.92,240.88Z"/><path class="cls-1" d="M1076,225.69a5.29,5.29,0,0,0,.82-3.6,7.18,7.18,0,0,0-1.22-2.07,4.56,4.56,0,0,0-3.87-.79c-1.91.53-2.41,1.1-2.82,1.93a12.05,12.05,0,0,0-.38,1.2C1067.85,226.6,1073.45,228.88,1076,225.69Z"/><path class="cls-1" d="M1076.51,206.95c4.66-1,2.9-8.91-2.3-6.79-1.94.8-2.54,1.91-2.22,3.81A3.54,3.54,0,0,0,1076.51,206.95Z"/><path class="cls-1" d="M1130.2,377.75a4.77,4.77,0,0,0,5.56-6.11c-0.73-2.33-3.14-3.66-6.14-2.4C1125.07,371.15,1127.21,377.14,1130.2,377.75Z"/><path class="cls-1" d="M1123.08,438.94a6.4,6.4,0,0,0,5.75-8.44,5.7,5.7,0,0,0-3.61-3.59l-7.05,1.72a5.54,5.54,0,0,0-1.56,4.22A6.38,6.38,0,0,0,1123.08,438.94Z"/><path class="cls-1" d="M1127.57,411.2a2.55,2.55,0,0,1-1.32-.92c-0.64.28-2.08,0-2.18,0.65-1,.51-1,1.74-0.59,3.26C1125.07,416,1129.19,414.55,1127.57,411.2Z"/><path class="cls-1" d="M1112.43,344a0.45,0.45,0,0,0-.24.33c-0.16.06-.38,0-0.55,0.09a7.26,7.26,0,0,0-3.81,4.66,9.12,9.12,0,0,0,.86,5,7.27,7.27,0,0,0,3.32,2.6,7,7,0,0,0,8.22-2.26C1123.56,349.8,1119.53,341.89,1112.43,344Z"/><path class="cls-1" d="M1120.69,314.42a3.68,3.68,0,0,0,.76,0,3.21,3.21,0,0,0,2.06-1.45Z"/><path class="cls-1" d="M1124.33,329.67a6.71,6.71,0,0,0-8.89-5.09,6.17,6.17,0,0,0-4.18,4.16c-1.07,4,1.32,7.64,4.31,8.45A6.84,6.84,0,0,0,1124.33,329.67Z"/><path class="cls-1" d="M1061,199.82c-0.48-3.73-4-5.16-7-4a4.5,4.5,0,0,0-3.14,5.13C1051.74,208.07,1061.76,206.09,1061,199.82Z"/><path class="cls-1" d="M951.38,186.58a5.85,5.85,0,0,0,6.52,4.63,5.91,5.91,0,0,0,4-8.44c-0.87-1.65-3.44-3-6.2-2.67a1,1,0,0,0-.5.37A5.34,5.34,0,0,0,951.38,186.58Z"/><path class="cls-1" d="M943.55,147.16a4.17,4.17,0,0,0,3.19-4.86,3,3,0,0,0-1.12-1.53,7.32,7.32,0,0,0-.42-0.79,3,3,0,0,0-.6-0.18,3.22,3.22,0,0,0-2.88-.08c-1.52.52-2,1.06-2.23,2.09,0,0.12-.47.24-0.51,0.37a7.9,7.9,0,0,0,0,1.72A4,4,0,0,0,943.55,147.16Z"/><path class="cls-1" d="M938.68,169.22a6.79,6.79,0,0,0,7.47-5,7.71,7.71,0,0,0-.76-4.47,7.63,7.63,0,0,0-3.63-2.81,7.73,7.73,0,0,0-4,.38,8.31,8.31,0,0,0-1.11.19c-1.68.88-2.9,3.57-3,4.23a8.06,8.06,0,0,0,.75,4.46A7.83,7.83,0,0,0,938.68,169.22Z"/><path class="cls-1" d="M604.8,136.39a5.53,5.53,0,0,0-1.23-7.25c-1.86-1.33-2.92-1.26-5.48-.22a5.21,5.21,0,0,0-1.08.47,8.08,8.08,0,0,0-1.75,3.17,5.13,5.13,0,0,0,2.29,5.06A5.58,5.58,0,0,0,604.8,136.39Z"/><path class="cls-1" d="M934.27,188.9a7,7,0,0,0,8.23-2.25c3.32-4.69-.71-12.59-7.8-10.44a0.42,0.42,0,0,0-.23.34c-0.18.06-.39,0-0.57,0.09a7.23,7.23,0,0,0-3.79,4.66,9.07,9.07,0,0,0,.85,5A7.26,7.26,0,0,0,934.27,188.9Z"/><path class="cls-1" d="M960.73,170.64a5,5,0,0,0,3.89-5.83,4.64,4.64,0,0,0-6-3.28,4.69,4.69,0,0,0-3,2.24,6.46,6.46,0,0,0-.37,2.93A5.08,5.08,0,0,0,960.73,170.64Z"/><path class="cls-1" d="M1053.23,227a6.86,6.86,0,1,0-2.55-13.34,0.43,0.43,0,0,0-.24.33,5.91,5.91,0,0,0-1.85.89c-1.21,1.61-2.65,3.34-2.51,5.59A7.09,7.09,0,0,0,1053.23,227Z"/><path class="cls-1" d="M922.06,162.57c-0.06,0,1.11-1.46,1.16-1.63a4.91,4.91,0,0,0-.47-2.8A7.68,7.68,0,0,0,921.1,157a3.54,3.54,0,0,0-1.67.29,5,5,0,0,0-1.11.19,14.18,14.18,0,0,0-1.16,1.62C916.52,161.42,919.6,164.23,922.06,162.57Z"/><path class="cls-1" d="M1043.12,238.44a9.23,9.23,0,0,0,.86,5,7.38,7.38,0,0,0,3.31,2.59,7,7,0,0,0,8.23-2.26c3.33-4.7-.71-12.59-7.8-10.44a0.42,0.42,0,0,0-.23.33c-0.18.07-.39,0-0.57,0.09A7.3,7.3,0,0,0,1043.12,238.44Z"/><path class="cls-1" d="M1097.66,443a0.47,0.47,0,0,0-.23.33c-0.17.06-.38,0-0.56,0.09a7.25,7.25,0,0,0-3.8,4.67,9.1,9.1,0,0,0,.85,5,7.38,7.38,0,0,0,3.31,2.59,7,7,0,0,0,8.23-2.26C1108.79,448.72,1104.75,440.82,1097.66,443Z"/><path class="cls-1" d="M1035,195.9a2,2,0,1,0,3,.92A1.86,1.86,0,0,0,1035,195.9Z"/><path class="cls-1" d="M388.92,205.19a2,2,0,0,0,1.39-2,1.93,1.93,0,0,0-2.92-2.09C384.71,202.46,386.59,205.81,388.92,205.19Z"/><path class="cls-1" d="M339.43,799.29a1.46,1.46,0,0,0-.5.38c-4,1.77-1.43,7.07,2.2,6.23C345.12,805,344,798.4,339.43,799.29Z"/><path class="cls-1" d="M291.55,713.3a1.92,1.92,0,0,0,1.45,3.48,1.89,1.89,0,0,0,1.58-2.56A1.86,1.86,0,0,0,291.55,713.3Z"/><path class="cls-1" d="M298.73,689.69a5.86,5.86,0,0,0-4.93-.31c-2.17.7-2.72,1.26-3.35,2.28a6.5,6.5,0,0,0,1.66,8.05,6.39,6.39,0,0,0,8.36-1.42C302,696.21,301.86,691.56,298.73,689.69Z"/><path class="cls-1" d="M344.63,779.18c-0.83-.25-1.53-0.21-3.06.52a2.76,2.76,0,0,0-.29.05,3,3,0,0,0-1.62,2.28c-0.41,2,1.16,4.19,2.22,4.5a5.5,5.5,0,0,0,3.9-.66,5.8,5.8,0,0,0,1.3-2.51A4.66,4.66,0,0,0,344.63,779.18Z"/><path class="cls-1" d="M349.79,762.24a3.85,3.85,0,0,0-4.2-2.73,1.19,1.19,0,0,0-.51.36,3.41,3.41,0,0,0-2.5,3.88,3.91,3.91,0,0,0,4.53,3A4,4,0,0,0,349.79,762.24Z"/><path class="cls-1" d="M360.43,801.19a4.61,4.61,0,0,0-2.19.65,3.67,3.67,0,0,0-2.51,3.87,4.26,4.26,0,0,0,4.43,4.12,4.35,4.35,0,0,0,3.9-5.83A4.69,4.69,0,0,0,360.43,801.19Z"/><path class="cls-1" d="M252.94,683.69a5.46,5.46,0,0,0-2.27,1.83,11.59,11.59,0,0,0-1.25,2.8,7,7,0,0,0,2.76,6.13A9.83,9.83,0,0,0,255,695.7a7.24,7.24,0,0,0,6.14-2.77C264.16,688.63,260.65,680.56,252.94,683.69Z"/><path class="cls-1" d="M281.26,666.26c-0.11,0-.24-0.46-0.38-0.52a6.91,6.91,0,0,0-4,.11,6.21,6.21,0,0,0-4.74,4.25c-1.38,4.51,2.39,9.64,7.52,8.77a6.84,6.84,0,0,0,5.56-7.83A6.4,6.4,0,0,0,281.26,666.26Z"/><path class="cls-1" d="M263.22,669.89a7.25,7.25,0,0,0-.47-2.79,4,4,0,0,0-6-1.57,3.69,3.69,0,0,0-2.27,3.54c0.12,4.57,4.08,5.1,6.44,4.08A5.4,5.4,0,0,0,263.22,669.89Z"/><path class="cls-1" d="M361.37,779.78a5.66,5.66,0,0,0-2.42,1c-0.39.51-.94,1-1.21,1.36s-1.11,2-1.1,1.9c-0.43,1.67.39,5.16,1.26,5.82,0.54,0.38.95,0.91,1.35,1.2s1.86,1.1,1.92,1.11c1.47,0.37,5.07-.28,5.81-1.27,1.22-1.66,2.85-3.48,2.4-6.15a6.17,6.17,0,0,0-2.71-4.13A5.45,5.45,0,0,0,361.37,779.78Z"/><path class="cls-1" d="M270.92,708.48a3.41,3.41,0,0,0-2.26,3.54,4,4,0,0,0,4.1,3.89c3.23-.21,5-4.15,3.24-6.29C274.63,707.95,273.19,707.44,270.92,708.48Z"/><path class="cls-1" d="M273.32,685.4a0.42,0.42,0,0,0-.24.32c-0.17.08-.39,0-0.55,0.1a7.28,7.28,0,0,0-3.8,4.67,9,9,0,0,0,.86,5,7.32,7.32,0,0,0,3.3,2.59,7,7,0,0,0,8.23-2.25C284.45,691.14,280.41,683.26,273.32,685.4Z"/><path class="cls-1" d="M398.53,729.86c0.1-5.73-5.08-8.54-9.74-6.67a5.85,5.85,0,0,0-3.89,4.1,7.1,7.1,0,0,0,9.46,8.43A7.64,7.64,0,0,0,398.53,729.86Z"/><path class="cls-1" d="M457.26,817.17a2.48,2.48,0,0,0-1.66,2c-1.1,4.59,4.68,5.17,6.24,3,1.24-1.76.11-4.34-.86-5A3.75,3.75,0,0,0,457.26,817.17Z"/><path class="cls-1" d="M405.38,746.48a5.44,5.44,0,0,0-2.29,1.82,11.09,11.09,0,0,0-1.24,2.8,7,7,0,0,0,2.75,6.13,9.16,9.16,0,0,0,2.8,1.24,7.2,7.2,0,0,0,6.12-2.76C416.59,751.41,413.08,743.36,405.38,746.48Z"/><path class="cls-1" d="M448.4,778.5a7.45,7.45,0,0,0-.47-2.79s-0.54-.12-0.61-0.2a6.9,6.9,0,0,0-.42-0.78,2.61,2.61,0,0,0-.56.1,5.44,5.44,0,0,0-.37-0.51,5,5,0,0,0-2.74.75c-1.76,1.13-1.82,2.86-1,4.48,0,0,.54.12,0.6,0.18a5.38,5.38,0,0,0,.42.78,2.57,2.57,0,0,0,.55-0.09,4.54,4.54,0,0,0,.39.51,4,4,0,0,0,3.75-1.5,3.09,3.09,0,0,0-.09-0.55A6.32,6.32,0,0,0,448.4,778.5Z"/><path class="cls-1" d="M463.46,794.6a7.12,7.12,0,0,0-4.18.7,5.76,5.76,0,0,0-2.29,8.43,7.65,7.65,0,0,0,3.26,2.32,8.1,8.1,0,0,0,5-.85,8,8,0,0,0,2.31-3.27C468.34,798.31,465.45,795,463.46,794.6Z"/><path class="cls-1" d="M599.06,160a7,7,0,0,0,5.51-8.11,6.91,6.91,0,0,0-2.06-3.66,3.68,3.68,0,0,0-2-1.4c-0.28-.12-0.78-0.64-1-0.68a9.53,9.53,0,0,0-4.23.43,5.2,5.2,0,0,0-2.6,1.58,3.7,3.7,0,0,0-1.39,2,6.57,6.57,0,0,0-.73,4.13A7.09,7.09,0,0,0,599.06,160Z"/><path class="cls-1" d="M251,704.12c-2.65,1-3.7,2.93-3.37,5.45a5.27,5.27,0,0,0,6.25,4.69,5.54,5.54,0,0,0,4.4-6.21A5.33,5.33,0,0,0,251,704.12Z"/><path class="cls-1" d="M384,762.74a5.54,5.54,0,0,0-2.43,1c-0.37.51-.93,1-1.2,1.35s-1.13,2-1.12,1.91c-0.43,1.66.4,5.16,1.27,5.82,0.52,0.38,1,.91,1.36,1.2s1.85,1.1,1.91,1.12c1.48,0.37,5.08-.28,5.81-1.28,1.24-1.65,2.86-3.47,2.41-6.14a6.15,6.15,0,0,0-2.72-4.14A5.47,5.47,0,0,0,384,762.74Z"/><path class="cls-1" d="M381.76,784.93c-1.91.52-2.41,1.1-2.84,1.92,0,0.1-.33,1.06-0.37,1.22-0.66,4.23,5,6.51,7.46,3.32a5.21,5.21,0,0,0,.82-3.58,7,7,0,0,0-1.22-2.1A4.56,4.56,0,0,0,381.76,784.93Z"/><path class="cls-1" d="M368.66,760.17c-0.1,0-.24-0.46-0.37-0.5a6.91,6.91,0,0,0-4.28.15c-2.24.69-3.57,2-4,3.54,0,0.11-.45.25-0.51,0.38a7.17,7.17,0,0,0-.09,1.17,6.73,6.73,0,0,0,7.94,7.83,7,7,0,0,0,5.28-7.78C372.29,762.88,370.34,760.62,368.66,760.17Z"/><path class="cls-1" d="M386.34,742.54a0.43,0.43,0,0,0-.24.32c-0.16.07-.39,0-0.56,0.09a7.35,7.35,0,0,0-3.8,4.67,9,9,0,0,0,.86,5,7.32,7.32,0,0,0,3.31,2.59,7,7,0,0,0,8.22-2.26C397.46,748.3,393.44,740.39,386.34,742.54Z"/><path class="cls-1" d="M403.9,768.26c-2.09.83-2.81,2-2.45,4.14,0.94,5.55,8.91,3.54,7.76-1.6A3.85,3.85,0,0,0,403.9,768.26Z"/><path class="cls-1" d="M467.55,774.67c-0.12,0-.26-0.47-0.38-0.51a6.89,6.89,0,0,0-4,.11,6.17,6.17,0,0,0-4.73,4.25c-1.39,4.49,2.39,9.64,7.51,8.77a6.85,6.85,0,0,0,5.57-7.83A6.39,6.39,0,0,0,467.55,774.67Z"/><path class="cls-1" d="M409.8,226.55a4,4,0,0,0,.11-0.82c-0.16-4-3.52-5.84-7-4.25a5.05,5.05,0,0,0-1,.64Z"/><path class="cls-1" d="M478.12,140.68a9.61,9.61,0,0,0,3.35-.57,7.14,7.14,0,0,0,2.54-3.6,5,5,0,0,0-2.24-4.78c-1.71-1.22-2.71-1.52-5.21-.27s-3.19,4.07-2,6.66A7.21,7.21,0,0,0,478.12,140.68Z"/><path class="cls-1" d="M496.7,163.93a5.91,5.91,0,0,0,4-8.44c-0.87-1.66-3.44-3-6.19-2.69a1,1,0,0,0-.5.38,5.32,5.32,0,0,0-3.85,6.1A5.85,5.85,0,0,0,496.7,163.93Z"/><path class="cls-1" d="M481.73,158.84a6.76,6.76,0,0,0,1-4.59c-0.36-2.09-2.31-4.35-4-4.79-0.12,0-.24-0.47-0.38-0.52a7,7,0,0,0-4.28.15c-0.19.06-.33,0.15-0.51,0.22Z"/><path class="cls-1" d="M462.09,135.85c2.79-2.63.63-8.85-4.33-6.92a4.38,4.38,0,0,0-1,.64Z"/><path class="cls-1" d="M499.05,140.57a1.89,1.89,0,0,0,1.57-2.57,1.86,1.86,0,0,0-3-.91A1.92,1.92,0,0,0,499.05,140.57Z"/><path class="cls-1" d="M506.52,181.19a6.3,6.3,0,1,0,12.23-2.36,5.82,5.82,0,0,0-3.78-3.66,6.94,6.94,0,0,0-4.56.2A5.68,5.68,0,0,0,506.52,181.19Z"/><path class="cls-1" d="M235.31,683a1.23,1.23,0,0,0-.51.38,3,3,0,0,0-2,3.77,3.53,3.53,0,0,0,4.15,2.46C241,688.63,239.87,682.07,235.31,683Z"/><path class="cls-1" d="M599.59,178.61l0.05,0a7.52,7.52,0,0,0,2.68-6.19,7.63,7.63,0,0,0-1.5-3.76,10.9,10.9,0,0,0-.46-1.07,11.8,11.8,0,0,0-2.9-1.81,9,9,0,0,0-5.11.3,5.57,5.57,0,0,0-.88.47Z"/><path class="cls-1" d="M518.51,160.5a2.59,2.59,0,0,0-3.73-1.65c-1.9.79-1.94,2-1.79,2.88C513.61,165.45,519.46,164.24,518.51,160.5Z"/><path class="cls-1" d="M581.71,152a4.42,4.42,0,0,0,.2-3.44,4.7,4.7,0,0,0-3.63-2.83,2.63,2.63,0,0,0-.71.12Z"/><path class="cls-1" d="M584.22,128.4a3.71,3.71,0,0,0-2-1.39,3.42,3.42,0,0,0-3.39.28,3.46,3.46,0,0,0-1.9,2.34C576.28,136.57,587.2,134.79,584.22,128.4Z"/><path class="cls-1" d="M212.53,700.89c-3.47,1.58-.71,5.2,1.64,4.6a2.71,2.71,0,0,0,1.76-3.16,6.94,6.94,0,0,0-.8-1.3A2.53,2.53,0,0,0,212.53,700.89Z"/><path class="cls-1" d="M209.61,720.9c-2.66,1.34-.79,4.67,1.54,4a2,2,0,0,0,1.4-2A1.94,1.94,0,0,0,209.61,720.9Z"/><path class="cls-1" d="M231.23,701.16c-2.65,1-3.7,2.92-3.38,5.44a5.28,5.28,0,0,0,6.25,4.68,5.52,5.52,0,0,0,4.39-6.19A5.32,5.32,0,0,0,231.23,701.16Z"/><path class="cls-1" d="M164.07,611.55c-5,1.94-2.28,9,2.49,7.9C171.89,618.25,169.86,609.28,164.07,611.55Z"/><path class="cls-1" d="M228.64,723.12c-3.53,1.93-.46,6.81,3,5.52a3.33,3.33,0,0,0,1.57-4.28C232.51,722.65,230.41,722.15,228.64,723.12Z"/><path class="cls-1" d="M144.26,609.74c-3.54,1.94-.47,6.82,2.94,5.53a3.36,3.36,0,0,0,1.57-4.28C148.12,609.27,146,608.79,144.26,609.74Z"/><path class="cls-1" d="M370.13,202.63s1.11-1.45,1.16-1.63a4.77,4.77,0,0,0-.48-2.79,7.38,7.38,0,0,0-1.63-1.15,3.29,3.29,0,0,0-1.68.28,4.77,4.77,0,0,0-1.11.19,15.06,15.06,0,0,0-1.16,1.62C364.6,201.49,367.68,204.29,370.13,202.63Z"/><path class="cls-1" d="M319.13,275c1-1.83-.59-5-3.31-3.47a2.47,2.47,0,0,0-1.25,1.41Z"/><path class="cls-1" d="M480.84,798.82a0.83,0.83,0,0,0-.51.37c-1.72.54-2.26,1.18-2.51,2.15,0,0.08-.46.27-0.51,0.36a5.68,5.68,0,0,0-.17,2.34,4.35,4.35,0,0,0,2.83,3.24,4.48,4.48,0,0,0,6-5,5.54,5.54,0,0,0-1.16-1.84A4.64,4.64,0,0,0,480.84,798.82Z"/><path class="cls-1" d="M262.29,243.61c-0.5-.57-2.4-1-3.16,0-1,.36-0.58,1.71-0.35,2.93C260.32,248,263.87,246.6,262.29,243.61Z"/><path class="cls-1" d="M147.82,590.21c-3.47,1.57-.72,5.19,1.64,4.59a2.71,2.71,0,0,0,1.76-3.17,6.5,6.5,0,0,0-.79-1.3A2.52,2.52,0,0,0,147.82,590.21Z"/><polygon class="cls-2" points="1199.09 298.5 1211.5 278.48 1149.53 286.86 1188.01 288.84 1177.37 309.42 1260.61 294.62 1199.09 298.5"/><polygon class="cls-2" points="145.32 763.04 157.73 743.02 95.76 751.4 134.24 753.39 123.6 773.97 206.83 759.17 145.32 763.04"/><path class="cls-3" d="M457.12,576.71a67.84,67.84,0,0,1-24.2-4.94,157.2,157.2,0,0,1-19.47-9.17,93.68,93.68,0,0,1-19.91-14.82,121,121,0,0,1-13.69-16.16,89.23,89.23,0,0,1-11.2-21l0-.14A185,185,0,0,1,359.94,476a223.76,223.76,0,0,1-2.59-37.38,262.78,262.78,0,0,1,3.47-39,283.87,283.87,0,0,1,9.46-39.82,307.82,307.82,0,0,1,15.35-39.21,254.07,254.07,0,0,1,21.56-37.26q0.25-.36.52-0.7A88.39,88.39,0,0,1,431,261.53c9.67-6,19.39-9.07,28.91-9.07q1.22,0,2.43.07a90.58,90.58,0,0,1,30.34,6.92,71.48,71.48,0,0,1,25.8,18.15l0.18,0.21a82.35,82.35,0,0,1,16.06,27.82,153.53,153.53,0,0,1,6.58,30.67c0,0.13,0,.25,0,0.38a407.8,407.8,0,0,1,1.2,57.77,463,463,0,0,1-6.92,61.44,351.08,351.08,0,0,1-15.19,57.19c-6.82,18.74-15.43,34.28-25.57,46.18q-0.44.52-.92,1c-8.75,8.87-18.53,14.2-29.07,15.86A49.82,49.82,0,0,1,457.12,576.71Zm1.34-198.45q-2.38,6.82-4.61,14.2c-3.15,10.44-5.71,20.41-7.61,29.63a239.8,239.8,0,0,0-4.89,54.56q0,1,.08,2,1.82-5,3.58-11.05a308.28,308.28,0,0,0,7.42-32.35l0-.16c1.81-9.72,3.31-20.71,4.44-32.66C457.71,394,458.23,385.92,458.47,378.26Z"/><path class="cls-3" d="M792.74,569.94a90.79,90.79,0,0,1-36.48-7.67,18.66,18.66,0,0,1-1.86-.94,61.63,61.63,0,0,1-16.59-14.51,71.29,71.29,0,0,1-11.73-20.66c-4.52-10.87-7.67-23.9-9.36-38.73a280.76,280.76,0,0,1-1.24-45.72,367.56,367.56,0,0,1,5.76-48.49,323.9,323.9,0,0,1,12.46-47.28,235.07,235.07,0,0,1,19.05-41.76c7.82-13.28,16.9-24.12,27-32.24a42.36,42.36,0,0,1,15.45-8.41,47.72,47.72,0,0,1,13.43-1.94q1.19,0,2.38.06a69.56,69.56,0,0,1,13.13,1.93,66.76,66.76,0,0,1,11.75,4.06,110.8,110.8,0,0,1,13.91,6.92c4.48,2.62,8.93,5.51,13.24,8.59a133.62,133.62,0,0,1,12.5,10.16,113.56,113.56,0,0,1,10.73,11.29,74.7,74.7,0,0,1,13.95,23.27,102.14,102.14,0,0,1,5.2,23.08q0.07,0.63.09,1.26c0.16,3.86.2,8.17,0.13,12.81s-0.33,9.47-.73,14.17-0.87,9-1.42,13.22c-0.6,4.58-1.24,8.37-2,11.61q-0.17.76-.4,1.51c-2.22,7.14-5.5,12.32-10,15.84a23,23,0,0,1-3.44,2.21l2,3c4.58,6.82,6.89,13.4,7.06,20.09a57.27,57.27,0,0,1-2.62,17.16q-0.12.42-.26,0.83a272.52,272.52,0,0,1-20.42,46.54c-8.12,14.32-17,26.37-26.28,35.83l-0.29.29A83.61,83.61,0,0,1,824.78,563a69.47,69.47,0,0,1-25.86,6.73C796.86,569.87,794.78,569.94,792.74,569.94Zm29.5-192.67c-2,4.46-3.91,9.31-5.83,14.53q-2.29,6.24-4.33,12.88c4.23-1.1,8.6-2,13-2.79q2.33-.39,4.47-0.79A61.3,61.3,0,0,1,822.24,377.27Z"/><path class="cls-3" d="M903.08,539a34.34,34.34,0,0,1-15.9-3.79c-6.65-3.41-17.75-12.29-17-33.24v-0.11a49.15,49.15,0,0,1,3.73-16.71A46.35,46.35,0,0,1,884.12,470l0.87-.84c-0.49-.76-0.92-1.49-1.28-2.19-3-5.73-3.8-12.77-2.47-21.51,1.24-9.88,3-21.11,5.07-33.39,2.18-12.67,4.64-25.46,7.31-38,2.7-12.69,5.49-24.9,8.28-36.29s5.5-21.49,8.13-30.29c5.16-17.69,18.57-19.41,22.56-19.52h0.62c8.17,0,15.19,4.27,21,8.53,4.45,3,9.38,6.62,15.05,11.08A190.87,190.87,0,0,1,984,320.36l0.08,0.07c6.07,5.95,9.64,10.89,11.59,16a27.68,27.68,0,0,1-1.19,22.4l-0.15.3c-3.49,6.86-7,14.56-10.55,22.89s-6.92,17.11-10.24,26.39c-3.16,8.83-6.2,18.14-9,27.7-2.64,8.92-5.1,17.91-7.3,26.71a31.45,31.45,0,0,1-5.33,11.73,30.73,30.73,0,0,1,3.34,13,37.41,37.41,0,0,1-1.58,12.26,47.3,47.3,0,0,1-4,9,63.68,63.68,0,0,1-6.51,9.45,67.51,67.51,0,0,1-9.11,9,50.35,50.35,0,0,1-13.64,8A45.93,45.93,0,0,1,903.08,539Z"/><polygon class="cls-4" points="681.84 701.8 654.44 792.23 608.45 703.61 530.56 830.62 503.06 695.36 431.75 761.6 425.61 673.13 327.28 752.39 347.32 633.72 209.22 666.48 310.8 564.85 143.71 564.73 282.19 495.6 151.64 459.38 267.01 421.6 176.29 349.04 289.88 345.9 228.93 233.27 353.48 289.4 343.13 187.81 433.83 238.3 427.14 90.99 532.43 214.22 555.76 108.56 615.22 197.01 666.13 58.11 714.06 199.19 784.49 109.71 814.98 204.4 893.88 134.93 910.15 241.85 1026.28 149.56 997.88 281.03 1118.76 308.6 999.99 371.22 1115.02 421 998.9 449.41 1072.45 505.67 968.61 524.64 1035.53 615.11 928.31 590.74 991.65 704.04 847.13 633.34 873.7 733.41 790.48 691.55 781.68 826.39 681.84 701.8"/><path class="cls-5" d="M1135.66,306.38l-31.17-7.11-99.59-22.7L1028.57,167l7-32.39-25.94,20.62-95.17,75.63-13.1-86.11-3.27-21.43-16.26,14.33-64,56.34-24.31-75.51-6.81-21.17L773,114.79,716.15,187l-39-114.88L666.34,40.33,654.8,71.82,613.65,184.07l-45.26-67.34L553,93.79l-6,27-17.78,80.56L442.83,100.24,420.43,74,422,108.47,427.43,228l-71.5-39.8-19.83-11,2.3,22.59,8.15,80.08-99.2-44.71-32-14.41,16.69,30.84,48,88.75-87.81,2.43-32.3.9,25.24,20.18,69.54,55.62-86.36,28.28-37.22,12.19,37.74,10.47,96.83,26.87L163.5,548.24l-44.87,22.39,50.16,0,127.75,0.09L219.8,647.53l-29.52,29.53,40.62-9.64L340,641.54,324.05,736l-5.2,30.79,24.3-19.6,77.34-62.35,4.5,64.79,1.71,24.72,18.16-16.86,54.51-50.63,22.39,110.19,6,29.46,15.71-25.62L608,715.63,642.48,782l13.4,25.83L664.32,780l19.93-65.75,83.29,103.92L786.6,842l2-30.42,7.22-110.7,63.48,31.92L882.8,744.6,876,719.16l-19.86-74.8L972,701l34,16.65-18.47-33.07L940,599.46l78.69,17.89,31.13,7.07-19-25.66-51.78-70,81.34-14.87,26.3-4.81-21.24-16.24-53.1-40.62,87-21.28,34.23-8.38-32.34-14-87.54-37.88,93.71-49.42ZM986.3,371.75l110.21,47.69-111,27.16,72.75,55.66-100,18.27,63.09,85.27L916.65,582l60.6,108.39-139.17-68.1L864.6,722.2l-79.44-40-8.39,128.54L679.43,689.33,653,776.59l-44.11-85L533.36,814.72,506.77,683.85l-70,65-6.06-87.44-95,76.6,18.92-112.1-126.47,30,96.91-97-156.29-.11L298.63,494,172.1,458.91l107.16-35.09-86.65-69.3,107.06-3-57.2-105.67L360.41,299,350.17,198.5l90.07,50.13-6.41-140.69L535.64,227.1l22.91-103.76,58.24,86.6,49.12-134,46,135.53,70.3-89.31,29.85,92.71,77.54-68.28,16.18,106.31L1017,164.5l-26.13,121,111,25.3Z"/><polygon points="883.44 455.9 983.68 417.7 912.53 375.78 929.45 287.3 819.01 304.45 798.81 244.04 734.05 271.26 689.05 226.12 659.75 265.37 591.63 197.29 553.79 271.41 476.27 250.93 476.61 332.72 387.35 332.5 405.29 392.58 308.28 408.74 376.24 485.37 311.44 586.69 416.89 574.38 415.92 672.23 476.61 626.95 496.78 675.66 553.62 627.48 596.98 705.39 634.12 632.49 661.34 657.01 676.78 627.34 737.09 667.16 736.29 586.16 852.28 621.55 823.75 527.3 901.21 508.06 883.44 455.9"/><polygon class="cls-6" points="883.44 455.9 983.68 417.7 912.53 375.78 929.45 287.3 819.01 304.45 798.81 244.04 734.05 271.26 689.05 226.12 659.75 265.37 591.63 197.29 553.79 271.41 476.27 250.93 476.61 332.72 387.35 332.5 405.29 392.58 308.28 408.74 376.24 485.37 311.44 586.69 416.89 574.38 415.92 672.23 476.61 626.95 496.78 675.66 553.62 627.48 596.98 705.39 634.12 632.49 661.34 657.01 676.78 627.34 737.09 667.16 736.29 586.16 852.28 621.55 823.75 527.3 901.21 508.06 883.44 455.9"/><polygon class="cls-1" points="875.44 452.9 975.68 414.7 904.53 372.78 921.45 284.3 811.01 301.45 790.81 241.04 726.05 268.26 681.05 223.12 651.75 262.37 583.63 194.29 545.79 268.41 468.27 247.93 468.61 329.72 379.35 329.5 397.29 389.58 300.28 405.74 368.24 482.37 303.44 583.69 408.89 571.38 407.92 669.23 468.61 623.95 488.78 672.66 545.62 624.48 588.98 702.39 626.12 629.49 653.34 654.01 668.78 624.34 729.09 664.16 728.29 583.16 844.28 618.55 815.75 524.3 893.21 505.06 875.44 452.9"/><polygon class="cls-7" points="875.44 452.9 975.68 414.7 904.53 372.78 921.45 284.3 811.01 301.45 790.81 241.04 726.05 268.26 681.05 223.12 651.75 262.37 583.63 194.29 545.79 268.41 468.27 247.93 468.61 329.72 379.35 329.5 397.29 389.58 300.28 405.74 368.24 482.37 303.44 583.69 408.89 571.38 407.92 669.23 468.61 623.95 488.78 672.66 545.62 624.48 588.98 702.39 626.12 629.49 653.34 654.01 668.78 624.34 729.09 664.16 728.29 583.16 844.28 618.55 815.75 524.3 893.21 505.06 875.44 452.9"/><path class="cls-8" d="M427.59,392.64q13.47-7.38,27.6-14.45A1833,1833,0,0,0,489.89,561.7c-5.82,5.46-11.42,10.79-16.81,15.94-0.35.07-4.46-.55-12.36-2.11q-4.67-.74-8.57-1.69l-4.77-1.08q-3.15-23.25-5.53-46.91,9.07,0.76,18.14,1.37Q443.47,460,427.59,392.64Z"/><path class="cls-8" d="M464.49,385.17q14.17-7,29-13.45c3.54,46,8.82,87.28,14.76,123.51q6-6.85,12.31-13.64-6.81-51.76-13.21-103.38,14.84-6.29,30.32-11.92a1583,1583,0,0,0,14,177.66c-7,6-13.69,12.08-20.2,18.09q-2-14.48-3.87-28.94c-6.65,8.5-16.5,21.44-28,38.27Q481.39,478.23,464.49,385.17Z"/><path class="cls-8" d="M552.68,556.57c1.17-60.82,1.89-120.13-.9-179.43,14.44-4.65,29.27-8.81,44.47-12.36q3.1,43.63,5.82,86.91,2.82-40.84,6.72-80.64c14.59-3.48,29.52-6.38,44.8-8.6-1.82,47.38-1.38,90,.22,126.62q0.48,10.9.86,21.47c-10.62,5.59-21,11.44-31,17.47q-1.61-49.52-3.9-99.76-5.67,56.51-9.22,115.18-7.9,4.59-15.58,9.24-5-73.85-10.82-148.32-2.58,66.76-2.68,135.55C571.58,545.44,562,551,552.68,556.57Z"/><path class="cls-8" d="M668.81,370.48c20.45-5.61,38.12-6.58,51.85-4.76,18.82,2.62,27.82,10,26.61,21-2.08,22.35-26.24,41.67-63,73.15-2.59,16.36-4.43,31.52-5.66,45.27q-12.73,7.81-24.83,16.35c0.21-3.13,1.12-12.78,2.81-28.85q2.66-25.48,5.5-50.73C667.14,395.51,669.59,372,668.81,370.48Zm25.87,33.8q-1.33,5.55-2.44,11.12t-2,11c11.5-6.56,19.34-12.6,23-18.94a5.82,5.82,0,0,0,.85-2.44c0.06-2.14-1.54-3.3-4.8-3.43S701.24,402.26,694.68,404.28Z"/><path class="cls-8" d="M738,471.26c4.1-1.13,7.61-1.07,10.45,0,3.4,1.15,4.74,3.4,4.07,6.81-0.91,4.63-4.54,9.29-10.6,14.49a53,53,0,0,1-14.38,9.22c-3.93,1.63-7.15,2.17-9.76,1.5-3.1-.85-4.48-3.26-4.11-7.19,0.5-5.31,3.49-10.9,9.25-16.32A35.26,35.26,0,0,1,738,471.26ZM772.72,369q22,7.67,43.8,15.84A209.89,209.89,0,0,0,784.19,415a207.15,207.15,0,0,0-24.82,37.7q-12.46.27-24.85,0.78Q752.31,409,772.72,369Z"/><path class="cls-8" d="M790.35,465c4.25-.8,7.78-0.65,10.5.29,3.28,1,4.34,2.74,3.24,5.35-1.5,3.54-5.72,7.06-12.39,11.11a73.7,73.7,0,0,1-15.39,7.37c-4.09,1.36-7.35,1.86-9.86,1.37-3-.62-4.09-2.56-3.28-5.75,1.09-4.3,4.69-8.87,11.07-13.17A42.35,42.35,0,0,1,790.35,465Zm47-79.81q22,9,43.82,18.38A185.53,185.53,0,0,0,844,423.43a169.29,169.29,0,0,0-29.92,27.72q-12.67-.4-25.27-0.53A657.8,657.8,0,0,1,837.38,385.22Z"/><path class="cls-9" d="M423.59,389.64q13.47-7.38,27.6-14.45A1833,1833,0,0,0,485.89,558.7c-5.82,5.46-11.42,10.79-16.81,15.94-0.35.07-4.46-.55-12.36-2.11q-4.67-.74-8.57-1.69l-4.77-1.08q-3.15-23.25-5.53-46.91,9.07,0.76,18.14,1.37Q439.47,457,423.59,389.64Z"/><path class="cls-9" d="M460.49,382.17q14.17-7,29-13.45c3.54,46,8.82,87.28,14.76,123.51q6-6.85,12.31-13.64-6.81-51.76-13.21-103.38,14.84-6.29,30.32-11.92a1583,1583,0,0,0,14,177.66c-7,6-13.69,12.08-20.2,18.09q-2-14.48-3.87-28.94c-6.65,8.5-16.5,21.44-28,38.27Q477.39,475.23,460.49,382.17Z"/><path class="cls-9" d="M548.68,553.57c1.17-60.82,1.89-120.13-.9-179.43,14.44-4.65,29.27-8.81,44.47-12.36q3.1,43.63,5.82,86.91,2.82-40.84,6.72-80.64c14.59-3.48,29.52-6.38,44.8-8.6-1.82,47.38-1.38,90,.22,126.62q0.48,10.9.86,21.47c-10.62,5.59-21,11.44-31,17.47q-1.61-49.52-3.9-99.76-5.67,56.51-9.22,115.18-7.9,4.59-15.58,9.24-5-73.85-10.82-148.32-2.58,66.76-2.68,135.55C567.58,542.44,558,548,548.68,553.57Z"/><path class="cls-9" d="M664.81,367.48c20.45-5.61,38.12-6.58,51.85-4.76,18.82,2.62,27.82,10,26.61,21-2.08,22.35-26.24,41.67-63,73.15-2.59,16.36-4.43,31.52-5.66,45.27q-12.73,7.81-24.83,16.35c0.21-3.13,1.12-12.78,2.81-28.85q2.66-25.48,5.5-50.73C663.14,392.51,665.59,369,664.81,367.48Zm25.87,33.8q-1.33,5.55-2.44,11.12t-2,11c11.5-6.56,19.34-12.6,23-18.94a5.82,5.82,0,0,0,.85-2.44c0.06-2.14-1.54-3.3-4.8-3.43S697.24,399.26,690.68,401.28Z"/><path class="cls-9" d="M734,468.26c4.1-1.13,7.61-1.07,10.45,0,3.4,1.15,4.74,3.4,4.07,6.81-0.91,4.63-4.54,9.29-10.6,14.49a53,53,0,0,1-14.38,9.22c-3.93,1.63-7.15,2.17-9.76,1.5-3.1-.85-4.48-3.26-4.11-7.19,0.5-5.31,3.49-10.9,9.25-16.32A35.26,35.26,0,0,1,734,468.26ZM768.72,366q22,7.67,43.8,15.84A209.89,209.89,0,0,0,780.19,412a207.15,207.15,0,0,0-24.82,37.7q-12.46.27-24.85,0.78Q748.31,406,768.72,366Z"/><path class="cls-9" d="M786.35,462c4.25-.8,7.78-0.65,10.5.29,3.28,1,4.34,2.74,3.24,5.35-1.5,3.54-5.72,7.06-12.39,11.11a73.7,73.7,0,0,1-15.39,7.37c-4.09,1.36-7.35,1.86-9.86,1.37-3-.62-4.09-2.56-3.28-5.75,1.09-4.3,4.69-8.87,11.07-13.17A42.35,42.35,0,0,1,786.35,462Zm47-79.81q22,9,43.82,18.38A185.53,185.53,0,0,0,840,420.43a169.29,169.29,0,0,0-29.92,27.72q-12.67-.4-25.27-0.53A657.8,657.8,0,0,1,833.38,382.22Z"/><polygon class="cls-10" points="177.22 66.47 275.28 188 272.43 190.65 157.78 84.65 177.22 66.47"/><polygon class="cls-10" points="1116.59 731.89 1050.05 686.7 1051.06 684.97 1123.45 720.01 1116.59 731.89"/><polygon class="cls-11" points="1096.51 776.67 1052.88 709.1 1054.49 707.89 1107.46 768.41 1096.51 776.67"/><polygon class="cls-10" points="160.49 138.8 237.44 194.05 235.99 196.41 150.63 154.91 160.49 138.8"/><polygon class="cls-10" points="278.79 121.16 296.45 175.31 294.91 175.94 268.28 125.46 278.79 121.16"/><polygon class="cls-4" points="270.28 773.22 253.59 772.28 267.62 763.23 263.34 747.1 276.3 757.61 290.34 748.57 284.31 764.15 297.27 774.7 280.6 773.79 274.56 789.36 270.28 773.22"/><path class="cls-9" d="M265.1,749.81l11.14,9,12.06-7.77-5.19,13.39,11.14,9.07-14.33-.78-5.19,13.38-3.68-13.87-14.34-.81,12.07-7.77-3.68-13.87m-3.51-5.42,1.58,5.94,3.31,12.46-10.84,7-5.17,3.33,6.14,0.35,12.9,0.73,3.31,12.47,1.58,5.94,2.22-5.73,4.67-12,12.88,0.7,6.14,0.33L295.52,772l-10-8.15,4.66-12,2.22-5.73-5.17,3.33-10.84,7-10-8.13-4.77-3.87h0Z"/><polygon class="cls-4" points="1123.96 245.04 1107.27 244.1 1121.31 235.06 1117.03 218.92 1129.99 229.44 1144.03 220.4 1137.99 235.97 1150.96 246.52 1134.28 245.62 1128.24 261.18 1123.96 245.04"/><path class="cls-9" d="M1118.78,221.63l11.14,9L1142,222.9l-5.19,13.39,11.14,9.07-14.33-.78L1128.42,258l-3.68-13.87-14.34-.81,12.07-7.77-3.68-13.87m-3.51-5.42,1.58,5.94,3.31,12.46-10.84,7-5.17,3.33,6.14,0.35,12.9,0.73,3.31,12.47,1.58,5.94,2.22-5.73,4.67-12,12.88,0.7,6.14,0.33-4.77-3.88-10-8.15,4.66-12,2.22-5.73-5.17,3.33-10.84,7-10-8.13-4.77-3.87h0Z"/><polygon class="cls-4" points="693.72 298.45 679.51 297.65 691.46 289.95 687.81 276.21 698.85 285.17 710.8 277.47 705.66 290.73 716.7 299.71 702.5 298.94 697.36 312.19 693.72 298.45"/><path class="cls-9" d="M689.57,278.93l9.21,7.48,10-6.43L704.47,291l9.22,7.5-11.85-.64L697.54,309l-3-11.47-11.86-.67,10-6.43-3-11.47m-3.51-5.42,1.58,5.94,2.67,10.07-8.76,5.64-5.17,3.33,6.14,0.35,10.42,0.59,2.67,10.07,1.58,5.94,2.22-5.73,3.77-9.71,10.4,0.57,6.14,0.33L714.95,297l-8.09-6.58,3.76-9.72,2.22-5.73-5.17,3.33-8.76,5.64-8.09-6.56-4.77-3.87h0Z"/><polygon class="cls-4" points="728.99 296.21 722.27 295.83 727.92 292.19 726.2 285.7 731.42 289.93 737.07 286.29 734.64 292.56 739.86 296.81 733.15 296.44 730.72 302.71 728.99 296.21"/><path class="cls-9" d="M728,288.41l3.4,2.76L735,288.8l-1.58,4.08,3.4,2.77-4.37-.24-1.58,4.08-1.12-4.23L725.4,295l3.68-2.37L728,288.41M724.45,283l1.58,5.94,0.75,2.82-2.46,1.58-5.17,3.33,6.14,0.35,2.93,0.17L729,300l1.58,5.94,2.22-5.73,1.06-2.73,2.92,0.16,6.14,0.33-4.77-3.88-2.27-1.85,1.06-2.73,2.22-5.73-5.17,3.33-2.46,1.58-2.27-1.84L724.45,283h0Z"/><polygon class="cls-4" points="691.04 565.85 678.49 572.56 684.69 559.76 674.42 549.93 688.5 551.83 694.7 539.04 697.22 553.03 711.32 554.95 698.8 561.69 701.31 575.68 691.04 565.85"/><path class="cls-9" d="M694.26,542.24l2.1,11.69,11.77,1.6-10.45,5.62,2.1,11.68-8.57-8.21-10.48,5.61,5.17-10.68-8.57-8.21,11.76,1.59,5.17-10.68m0.88-6.4-2.68,5.53-4.54,9.38-10.32-1.39-6.09-.82,4.44,4.25,7.52,7.2-4.54,9.37-2.68,5.54,5.42-2.9,9.2-4.92,7.52,7.21,4.44,4.25-1.08-6-1.84-10.25,9.18-4.93,5.42-2.91-6.09-.83-10.33-1.41-1.85-10.25-1.09-6.05h0Z"/><polygon class="cls-4" points="719.99 545.57 714.05 548.74 716.99 542.69 712.13 538.04 718.79 538.94 721.72 532.89 722.91 539.51 729.58 540.41 723.66 543.6 724.85 550.22 719.99 545.57"/><path class="cls-9" d="M721.28,536.09l0.78,4.31L726.4,541l-3.85,2.07,0.77,4.31-3.16-3-3.86,2.07,1.91-3.94-3.16-3,4.34,0.59,1.91-3.94m0.88-6.4-2.68,5.53-1.28,2.63-2.9-.39-6.09-.82,4.44,4.25,2.11,2-1.27,2.63-2.68,5.54,5.42-2.9,2.58-1.38,2.11,2,4.44,4.25-1.08-6-0.52-2.88,2.58-1.39,5.42-2.91-6.09-.83-2.9-.4-0.52-2.88-1.09-6.05h0Z"/></svg>